<?xml version="1.0" encoding="UTF-8"?>
<!DOCTYPE svg PUBLIC "-//W3C//DTD SVG 1.1//EN" "http://www.w3.org/Graphics/SVG/1.1/DTD/svg11.dtd">
<svg xmlns="http://www.w3.org/2000/svg" version="1.1" width="173px" height="22px" style="shape-rendering:geometricPrecision; text-rendering:geometricPrecision; image-rendering:optimizeQuality; fill-rule:evenodd; clip-rule:evenodd" xmlns:xlink="http://www.w3.org/1999/xlink">
<g><path style="opacity:0.654" fill="#090a09" d="M 9.5,-0.5 C 10.5,-0.5 11.5,-0.5 12.5,-0.5C 19.5437,0.898895 22.7104,5.23223 22,12.5C 21.5348,13.9308 20.7014,15.0975 19.5,16C 15.4021,16.1937 11.2354,16.027 7,15.5C 4.15421,6.51185 7.32088,3.17851 16.5,5.5C 16.1866,8.24688 16.52,10.9135 17.5,13.5C 20.5074,9.08559 19.5074,5.58559 14.5,3C 7.84833,1.66063 3.84833,4.32729 2.5,11C 4.19699,18.0659 8.53032,20.5659 15.5,18.5C 16.3857,19.325 16.719,20.325 16.5,21.5C 13.1667,21.5 9.83333,21.5 6.5,21.5C 3.02275,19.3599 0.689416,16.3599 -0.5,12.5C -0.5,11.5 -0.5,10.5 -0.5,9.5C 0.868754,4.13116 4.20209,0.797831 9.5,-0.5 Z M 9.5,7.5 C 14.2554,9.11599 14.5887,11.4493 10.5,14.5C 8.23946,12.5165 7.90612,10.1831 9.5,7.5 Z"/></g>
<g><path style="opacity:0.687" fill="#090a09" d="M 69.5,-0.5 C 70.1667,-0.5 70.8333,-0.5 71.5,-0.5C 79.6363,2.75821 81.6363,8.42488 77.5,16.5C 73,20.4167 68.5,20.4167 64,16.5C 60.1484,8.88679 61.9817,3.22012 69.5,-0.5 Z M 69.5,2.5 C 75.7057,3.55769 77.8723,7.22435 76,13.5C 72.6667,17.5 69.3333,17.5 66,13.5C 64.518,8.77404 65.6847,5.10738 69.5,2.5 Z"/></g>
<g><path style="opacity:0.679" fill="#090a09" d="M 145.5,-0.5 C 146.167,-0.5 146.833,-0.5 147.5,-0.5C 150.565,0.726541 152.899,2.89321 154.5,6C 153.833,6.16667 153.167,6.33333 152.5,6.5C 146.657,0.561851 142.657,1.56185 140.5,9.5C 140.699,14.8757 143.366,17.0424 148.5,16C 149.743,14.8455 150.743,13.5122 151.5,12C 152.5,11.3333 153.5,11.3333 154.5,12C 150.921,20.3536 145.754,21.5203 139,15.5C 135.469,7.58584 137.636,2.25251 145.5,-0.5 Z"/></g>
<g><path style="opacity:0.687" fill="#090a09" d="M 162.5,-0.5 C 163.167,-0.5 163.833,-0.5 164.5,-0.5C 167.987,0.30914 170.653,2.30914 172.5,5.5C 172.5,8.5 172.5,11.5 172.5,14.5C 163.941,22.1932 157.941,20.5265 154.5,9.5C 155.378,4.63237 158.045,1.29904 162.5,-0.5 Z M 162.5,2.5 C 168.706,3.55769 170.872,7.22435 169,13.5C 165.667,17.5 162.333,17.5 159,13.5C 157.518,8.77404 158.685,5.10738 162.5,2.5 Z"/></g>
<g><path style="opacity:0.696" fill="#090a09" d="M 23.5,0.5 C 24.5,0.5 25.5,0.5 26.5,0.5C 26.5,2.83333 26.5,5.16667 26.5,7.5C 29.5,7.5 32.5,7.5 35.5,7.5C 35.5,5.16667 35.5,2.83333 35.5,0.5C 36.5,0.5 37.5,0.5 38.5,0.5C 38.5,6.5 38.5,12.5 38.5,18.5C 37.5,18.5 36.5,18.5 35.5,18.5C 35.5,15.8333 35.5,13.1667 35.5,10.5C 32.5,10.5 29.5,10.5 26.5,10.5C 26.5,13.1667 26.5,15.8333 26.5,18.5C 25.5,18.5 24.5,18.5 23.5,18.5C 23.5,12.5 23.5,6.5 23.5,0.5 Z"/></g>
<g><path style="opacity:0.683" fill="#090a09" d="M 41.5,0.5 C 42.5,0.5 43.5,0.5 44.5,0.5C 44.5,6.5 44.5,12.5 44.5,18.5C 43.5,18.5 42.5,18.5 41.5,18.5C 41.5,12.5 41.5,6.5 41.5,0.5 Z"/></g>
<g><path style="opacity:0.694" fill="#090a09" d="M 46.5,0.5 C 50.1817,0.334703 53.8484,0.50137 57.5,1C 61.0846,3.52813 61.418,6.52813 58.5,10C 60.1793,12.5645 60.846,15.3979 60.5,18.5C 59.5,18.5 58.5,18.5 57.5,18.5C 58.5938,12.0951 55.9271,9.76179 49.5,11.5C 49.5,13.8333 49.5,16.1667 49.5,18.5C 48.5,18.5 47.5,18.5 46.5,18.5C 46.5,12.5 46.5,6.5 46.5,0.5 Z M 49.5,3.5 C 51.8568,3.33669 54.1902,3.50335 56.5,4C 57.8333,5.33333 57.8333,6.66667 56.5,8C 54.1902,8.49665 51.8568,8.66331 49.5,8.5C 49.5,6.83333 49.5,5.16667 49.5,3.5 Z"/></g>
<g><path style="opacity:0.68" fill="#090a09" d="M 81.5,0.5 C 85.5,0.5 89.5,0.5 93.5,0.5C 93.5,1.5 93.5,2.5 93.5,3.5C 90.5,3.5 87.5,3.5 84.5,3.5C 84.5,4.83333 84.5,6.16667 84.5,7.5C 87.1667,7.5 89.8333,7.5 92.5,7.5C 92.5,8.5 92.5,9.5 92.5,10.5C 89.8333,10.5 87.1667,10.5 84.5,10.5C 84.5,13.1667 84.5,15.8333 84.5,18.5C 83.5,18.5 82.5,18.5 81.5,18.5C 81.5,12.5 81.5,6.5 81.5,0.5 Z"/></g>
<g><path style="opacity:0.683" fill="#090a09" d="M 95.5,0.5 C 96.5,0.5 97.5,0.5 98.5,0.5C 98.5,6.5 98.5,12.5 98.5,18.5C 97.5,18.5 96.5,18.5 95.5,18.5C 95.5,12.5 95.5,6.5 95.5,0.5 Z"/></g>
<g><path style="opacity:0.767" fill="#090a09" d="M 100.5,0.5 C 101.5,0.5 102.5,0.5 103.5,0.5C 103.5,5.83333 103.5,11.1667 103.5,16.5C 106.572,16.1826 109.572,16.5159 112.5,17.5C 108.555,18.4909 104.555,18.8242 100.5,18.5C 100.5,12.5 100.5,6.5 100.5,0.5 Z"/></g>
<g><path style="opacity:0.691" fill="#090a09" d="M 113.5,0.5 C 114.978,0.237978 116.311,0.571312 117.5,1.5C 119.333,5.83333 121.167,10.1667 123,14.5C 124.833,10.1667 126.667,5.83333 128.5,1.5C 129.689,0.571312 131.022,0.237978 132.5,0.5C 132.5,6.5 132.5,12.5 132.5,18.5C 131.5,18.5 130.5,18.5 129.5,18.5C 130.363,4.31985 128.863,3.98652 125,17.5C 123.667,18.8333 122.333,18.8333 121,17.5C 117.137,3.98652 115.637,4.31985 116.5,18.5C 115.5,18.5 114.5,18.5 113.5,18.5C 113.5,12.5 113.5,6.5 113.5,0.5 Z"/></g>
<g><path style="opacity:0.711" fill="#090a09" d="M 134.5,15.5 C 135.5,15.5 136.5,15.5 137.5,15.5C 137.5,16.5 137.5,17.5 137.5,18.5C 136.5,18.5 135.5,18.5 134.5,18.5C 134.5,17.5 134.5,16.5 134.5,15.5 Z"/></g>
</svg>
