<?xml version="1.0" encoding="UTF-8"?>
<svg id="Layer_2" data-name="Layer 2" xmlns="http://www.w3.org/2000/svg" viewBox="0 0 118.69 118.69">
  <defs>
    <style>
      .cls-1 {
        fill: #161514;
      }

      .cls-2 {
        fill: #4cff5c;
      }
    </style>
  </defs>
  <g id="Layer_1-2" data-name="Layer 1">
    <circle class="cls-2" cx="59.35" cy="59.35" r="59.35"/>
    <g>
      <path class="cls-1" d="M35.1,36.18h1.08v1.68h1.47v-1.68h1.08v4.28h-1.08v-1.72h-1.47v1.72h-1.08v-4.28Z"/>
      <path class="cls-1" d="M41.84,36.18h1.08v4.28h-1.08v-4.28Z"/>
      <path class="cls-1" d="M46.03,36.18h2.02c.95,0,1.53,.44,1.53,1.22,0,.6-.34,.95-.87,1.07h0c1.07,.2,.68,1.86,.93,1.93v.06h-1.12c-.21-.18,.18-1.49-.74-1.49h-.67v1.49h-1.08v-4.28Zm1.81,1.91c.43,0,.66-.16,.66-.52s-.23-.51-.66-.51h-.73v1.03h.73Z"/>
      <path class="cls-1" d="M52.34,38.31c0-1.29,.76-2.23,2.12-2.23s2.12,.95,2.12,2.23-.77,2.24-2.12,2.24-2.12-.95-2.12-2.24Zm2.12,1.36c.78,0,1.02-.61,1.02-1.36s-.24-1.35-1.02-1.35-1.02,.61-1.02,1.35,.23,1.36,1.02,1.36Z"/>
      <path class="cls-1" d="M59.2,39.55h.91v.91h-.91v-.91Z"/>
      <path class="cls-1" d="M63.1,36.18h3.19v.88h-2.11v.94h1.72v.88h-1.72v1.58h-1.08v-4.28Z"/>
      <path class="cls-1" d="M69.17,36.18h1.08v4.28h-1.08v-4.28Z"/>
      <path class="cls-1" d="M73.36,36.18h1.08v3.4h1.9v.88h-2.98v-4.28Z"/>
      <path class="cls-1" d="M79.19,36.18h1.32l.88,2.73h.01l.88-2.73h1.32v4.28h-1.02v-2.66h-.01l-.8,2.66h-.75l-.8-2.66h-.01v2.66h-1.02v-4.28Z"/>
    </g>
    <path class="cls-1" d="M59.35,95.27c-8.92,0-15.9-3.15-15.9-7.18s6.98-7.18,15.9-7.18,15.9,3.15,15.9,7.18-6.98,7.18-15.9,7.18Zm0-13.72c-8.41,0-15.26,2.93-15.26,6.54s6.85,6.54,15.26,6.54,15.26-2.93,15.26-6.54-6.85-6.54-15.26-6.54Z"/>
    <g>
      <g>
        <path class="cls-1" d="M35.81,17.82c-.77-1.55-.46-3.09,1.14-3.89,1.38-.69,2.53-.23,3.23,.89l-1.3,.65c-.37-.51-.8-.8-1.47-.46-.84,.42-.78,1.2-.3,2.15,.47,.96,1.05,1.48,1.9,1.06,.68-.34,.71-.86,.51-1.47l1.31-.65c.46,1.22,.12,2.45-1.28,3.14-1.61,.8-2.98,.08-3.73-1.43Z"/>
        <path class="cls-1" d="M41.63,12l2.54-.82c1.2-.38,2.1-.06,2.42,.92,.24,.75-.04,1.33-.66,1.7v.02c1.43-.2,1.61,2.05,1.95,2.04l.02,.08-1.41,.45c-.34-.14-.37-1.95-1.53-1.58l-.84,.27,.6,1.88-1.36,.44-1.73-5.39Zm3.05,1.68c.54-.17,.77-.46,.62-.91-.14-.45-.49-.56-1.04-.38l-.92,.29,.42,1.3,.92-.29Z"/>
        <path class="cls-1" d="M48.64,10l4.23-.71,.19,1.15-2.82,.47,.17,.99,2.43-.41,.19,1.15-2.43,.41,.19,1.15,2.87-.48,.19,1.15-4.27,.72-.94-5.58Z"/>
        <path class="cls-1" d="M57.15,8.98l1.43-.03,2.29,5.62-1.56,.03-.39-1.17-1.94,.04-.34,1.19-1.53,.03,2.03-5.71Zm1.44,3.37l-.69-2.08h-.02l-.6,2.11,1.3-.03Z"/>
        <path class="cls-1" d="M63.44,10.33l-1.64-.17,.12-1.16,4.68,.49-.12,1.16-1.63-.17-.47,4.47-1.42-.15,.47-4.47Z"/>
        <path class="cls-1" d="M68.79,9.94l1.39,.3-1.2,5.53-1.39-.3,1.2-5.53Z"/>
        <path class="cls-1" d="M72.33,10.71l1.48,.5-.25,4.1h.02s2.28-3.41,2.28-3.41l1.43,.48-3.54,4.78-1.43-.48v-5.97Z"/>
        <path class="cls-1" d="M79.45,13.32l3.83,1.93-.52,1.04-2.56-1.29-.45,.9,2.21,1.11-.52,1.04-2.21-1.11-.52,1.04,2.6,1.31-.52,1.04-3.88-1.95,2.54-5.06Z"/>
      </g>
      <g>
        <path class="cls-1" d="M36.71,101.3c.74-1.57,2.13-2.29,3.75-1.52,1.4,.66,1.75,1.84,1.31,3.08l-1.32-.62c.17-.6,.13-1.12-.55-1.44-.85-.4-1.42,.14-1.87,1.1-.45,.97-.51,1.75,.35,2.15,.69,.32,1.11,.02,1.46-.51l1.32,.62c-.67,1.12-1.84,1.62-3.25,.95-1.63-.76-1.92-2.28-1.2-3.81Z"/>
        <path class="cls-1" d="M43.43,104.25c.47-1.64,1.78-2.56,3.51-2.06,1.71,.49,2.35,1.98,1.88,3.61-.47,1.64-1.8,2.56-3.51,2.07-1.73-.5-2.35-1.98-1.87-3.62Zm2.2,2.5c.99,.28,1.52-.4,1.79-1.36,.27-.94,.19-1.81-.8-2.09-1-.29-1.52,.4-1.79,1.35-.27,.95-.2,1.81,.8,2.1Z"/>
        <path class="cls-1" d="M51.52,103.45l1.41,.17,1.55,3.58h.02s.41-3.34,.41-3.34l1.41,.17-.69,5.61-1.41-.17-1.55-3.58h-.02s-.41,3.34-.41,3.34l-1.41-.17,.69-5.62Z"/>
        <path class="cls-1" d="M59.77,105.24l-1.65,.04-.03-1.16,4.71-.1,.03,1.16-1.64,.04,.1,4.5-1.43,.03-.1-4.5Z"/>
        <path class="cls-1" d="M64.61,103.84l4.24-.67,.18,1.15-2.83,.45,.16,.99,2.44-.39,.18,1.15-2.44,.39,.18,1.15,2.88-.46,.18,1.15-4.28,.68-.89-5.59Z"/>
        <path class="cls-1" d="M70.79,102.71l1.36-.43,2.9,2.62h.02s-1.01-3.22-1.01-3.22l1.36-.43,1.7,5.4-1.36,.43-2.9-2.62h-.02s1.01,3.22,1.01,3.22l-1.36,.43-1.7-5.41Z"/>
        <path class="cls-1" d="M79.11,100.9l-1.48,.72-.51-1.05,4.24-2.05,.51,1.05-1.47,.71,1.96,4.05-1.28,.62-1.96-4.05Z"/>
      </g>
    </g>
    <g>
      <g>
        <path class="cls-1" d="M22.88,54.44c3.46-.73,7.14-2.03,10.6-3.71,1.43-.7,2.19-1.17,2.98-1.81l3.43,4.98q-.89,.41-1.55,.73c-5.17,2.51-9.68,3.97-15.45,5.08v3.55c0,2.35,.03,2.6,.44,3.01,.44,.38,2.03,.6,4.6,.6,1.78,0,4.25-.13,6.16-.32,2.35-.25,3.59-.48,5.46-1.02l.22,5.87c-.83,0-1.55,.06-3.27,.22-3.17,.29-6.73,.48-9.27,.48-4.35,0-6.54-.38-8-1.4-.98-.73-1.55-1.78-1.78-3.43-.09-.63-.13-1.55-.13-3.36v-13.8c0-2.06-.03-3.05-.19-4.22h5.93c-.16,1.08-.19,1.81-.19,4.25v4.28Z"/>
        <path class="cls-1" d="M50.42,70.34v2.19h-5.77c.19-1.75,.25-2.82,.25-5.17v-16.31c0-1.36-.03-2.35-.13-3.65,1.11,.09,1.75,.13,3.84,.13h17.1c1.97,0,2.44,0,3.93-.13-.06,1.11-.1,2.25-.1,3.74v16.09c0,2.44,.06,3.97,.22,5.24h-5.74v-2.13h-13.61Zm13.61-17.74h-13.61v12.66h13.61v-12.66Z"/>
        <path class="cls-1" d="M76.74,53.3c3.65,1.43,6,2.6,8.85,4.47l-2.7,4.98c-2.73-2.03-5.52-3.55-9.07-4.92l2.92-4.54Zm-2,13.87c2.79-.06,6.73-.89,9.8-2.09,3.74-1.46,6.57-3.65,8.88-6.82,1.52-2.13,2.44-3.97,3.49-6.98,1.9,2,2.82,2.82,4.63,3.93-1.62,3.81-2.92,6-4.95,8.28-3.2,3.68-7.14,6.16-12.25,7.77-1.87,.6-3.24,.92-5.77,1.4-.92,.16-1.55,.32-2.25,.51l-1.59-6Zm4.38-21.64c3.74,1.36,6.44,2.6,9.11,4.16l-2.82,4.85c-3.27-2.13-5.9-3.43-9.11-4.54l2.82-4.47Z"/>
      </g>
      <path class="cls-1" d="M95.85,70.26c0-1.67,1.26-2.9,2.85-2.9s2.85,1.24,2.85,2.9-1.26,2.9-2.85,2.9-2.85-1.24-2.85-2.9Zm2.85,2.41c1.32,0,2.29-1.01,2.29-2.41s-.97-2.41-2.29-2.41-2.29,1.01-2.29,2.41,.97,2.41,2.29,2.41Zm-1.2-4.02h1.33c.74,0,1.14,.34,1.14,.94,0,.44-.26,.71-.67,.8h0c.82,.14,.55,1.35,.74,1.41v.04h-.82c-.16-.14,.11-1.13-.64-1.13h-.3v1.13h-.79v-3.19Zm1.12,1.43c.32,0,.6-.07,.6-.42s-.28-.41-.6-.41h-.32v.83h.32Z"/>
    </g>
    <g>
      <path class="cls-1" d="M51.22,88.71h.98c0,.45,.34,.61,.78,.61,.36,0,.54-.14,.54-.34,0-.33-.38-.41-.92-.58-.67-.2-1.27-.46-1.27-1.15,0-.84,.66-1.17,1.49-1.17,.9,0,1.61,.47,1.63,1.25h-.98c-.04-.3-.28-.47-.65-.47-.29,0-.5,.1-.5,.32,0,.26,.21,.34,.71,.49,.73,.22,1.48,.42,1.48,1.22,0,.74-.56,1.22-1.52,1.22s-1.77-.51-1.77-1.39Z"/>
      <path class="cls-1" d="M54.97,86.16h1.87c.8,0,1.3,.42,1.3,1.23s-.5,1.23-1.3,1.23h-.9v1.4h-.97v-3.85Zm1.64,1.67c.33,0,.54-.11,.54-.44s-.21-.44-.54-.44h-.67v.87h.67Z"/>
      <path class="cls-1" d="M59.43,86.16h.7l-1.49,3.85h-.7l1.49-3.85Z"/>
      <path class="cls-1" d="M60.51,86.16h1.87c.8,0,1.22,.31,1.22,.97,0,.47-.28,.71-.6,.82h0c.4,.08,.75,.35,.75,.93,0,.82-.52,1.14-1.32,1.14h-1.92v-3.85Zm1.62,1.56c.27,0,.48-.06,.48-.38s-.22-.38-.48-.38h-.65v.76h.65Zm.03,1.5c.4,0,.61-.1,.61-.46s-.2-.45-.61-.45h-.67v.91h.67Z"/>
      <path class="cls-1" d="M64.23,86.16h1.82c.86,0,1.37,.4,1.37,1.1,0,.54-.3,.86-.78,.96h0c.96,.18,.61,1.67,.83,1.73v.05h-1.01c-.19-.16,.16-1.34-.66-1.34h-.6v1.34h-.97v-3.85Zm1.63,1.72c.39,0,.59-.14,.59-.46s-.2-.46-.59-.46h-.66v.93h.66Z"/>
    </g>
    <g>
      <g>
        <path class="cls-1" d="M17.14,76.58h2.92v.79h-1.95v.68h1.68v.79h-1.68v.79h1.98v.79h-2.95v-3.85Z"/>
        <path class="cls-1" d="M20.38,79.13h.98c0,.45,.34,.61,.78,.61,.36,0,.54-.14,.54-.34,0-.33-.38-.41-.92-.58-.67-.2-1.27-.46-1.27-1.15,0-.84,.66-1.17,1.49-1.17,.9,0,1.61,.47,1.63,1.25h-.98c-.04-.3-.28-.47-.65-.47-.29,0-.5,.1-.5,.32,0,.26,.21,.34,.71,.49,.73,.22,1.48,.42,1.48,1.22,0,.74-.56,1.22-1.52,1.22s-1.77-.51-1.77-1.39Z"/>
        <path class="cls-1" d="M24.86,77.38h-1.12v-.79h3.21v.79h-1.12v3.06h-.97v-3.06Z"/>
      </g>
      <g>
        <path class="cls-1" d="M91.71,78.51c0-1.11,.52-1.95,1.64-1.95s1.63,.84,1.63,1.95-.52,1.94-1.63,1.94-1.64-.83-1.64-1.94Zm1.64,1.19c.53,0,.68-.52,.68-1.19s-.15-1.2-.68-1.2-.68,.52-.68,1.2,.15,1.19,.68,1.19Z"/>
        <path class="cls-1" d="M96.54,78.65c.4-.3,.7-.55,.7-.89,0-.29-.14-.46-.43-.46-.35,0-.56,.19-.56,.71h-.88c0-.87,.46-1.44,1.47-1.44,.8,0,1.34,.42,1.34,1.13s-.6,1.18-1.12,1.55c-.18,.13-.34,.25-.46,.38h0s1.58,.01,1.58,.01v.74h-2.87c0-.79,.42-1.12,1.23-1.72Z"/>
        <path class="cls-1" d="M98.53,79.06h.88c0,.43,.18,.66,.65,.66,.4,0,.55-.17,.55-.45,0-.36-.24-.49-.66-.49h-.19v-.63h.17c.33,0,.58-.14,.58-.46,0-.25-.16-.39-.46-.39s-.53,.13-.53,.49h-.88c0-.71,.54-1.23,1.44-1.23,.75,0,1.37,.37,1.37,1.02,0,.4-.24,.66-.54,.81h0c.46,.16,.65,.47,.65,.91,0,.75-.57,1.15-1.46,1.15-1,0-1.57-.51-1.57-1.4Z"/>
      </g>
    </g>
    <rect class="cls-1" x="57.53" y="24.09" width="3.63" height="3.63" rx="1.6" ry="1.6" transform="translate(119.63 2.25) rotate(135)"/>
  </g>
</svg>