<?xml version="1.0" encoding="UTF-8"?>
<svg id="Layer_2" data-name="Layer 2" xmlns="http://www.w3.org/2000/svg" viewBox="0 0 146.23 142.55">
  <defs>
    <style>
      .cls-1 {
        fill: #edf0e7;
      }

      .cls-2 {
        fill: #4cff5c;
      }
    </style>
  </defs>
  <g id="Layer_1-2" data-name="Layer 1">
    <g>
      <g>
        <g>
          <path class="cls-2" d="M41.53,126.07c-1.2-5.71-3.35-11.78-6.13-17.49-1.15-2.36-1.94-3.61-2.98-4.92l8.22-5.66q.68,1.47,1.2,2.57c4.14,8.54,6.55,15.97,8.38,25.5h5.87c3.87,0,4.29-.05,4.98-.73,.63-.73,1-3.35,1-7.59,0-2.93-.21-7.02-.52-10.16-.42-3.88-.79-5.92-1.68-9.01l9.69-.37c0,1.36,.11,2.57,.37,5.39,.47,5.24,.79,11.1,.79,15.29,0,7.17-.63,10.79-2.3,13.2-1.2,1.62-2.93,2.57-5.66,2.93-1.05,.16-2.57,.21-5.55,.21h-22.78c-3.4,0-5.03,.05-6.97,.31v-9.79c1.78,.26,2.98,.31,7.02,.31h7.07Z"/>
          <path class="cls-2" d="M67.76,82.5h3.61v9.53c-2.88-.31-4.66-.42-8.54-.42h-26.92c-2.25,0-3.87,.05-6.02,.21,.16-1.83,.21-2.88,.21-6.34v-28.23c0-3.25,0-4.03-.21-6.49,1.83,.11,3.72,.16,6.18,.16h26.55c4.03,0,6.55-.1,8.64-.37v9.48h-3.51v22.47Zm-29.27-22.47v22.47h20.89v-22.47h-20.89Z"/>
          <path class="cls-2" d="M39.64,40.95c2.36-6.02,4.29-9.9,7.38-14.61l8.22,4.45c-3.35,4.5-5.87,9.11-8.12,14.98l-7.49-4.82Zm22.89,3.3c-.11-4.61-1.47-11.1-3.46-16.18-2.41-6.18-6.02-10.84-11.26-14.66-3.51-2.51-6.55-4.03-11.52-5.76,3.3-3.14,4.66-4.66,6.49-7.65,6.28,2.67,9.9,4.82,13.67,8.17,6.08,5.29,10.16,11.78,12.83,20.21,.99,3.09,1.52,5.34,2.3,9.53,.26,1.52,.52,2.57,.84,3.72l-9.9,2.62Zm-35.72-7.23c2.25-6.18,4.29-10.63,6.86-15.03l8.01,4.66c-3.51,5.39-5.66,9.74-7.49,15.03l-7.38-4.66Z"/>
        </g>
        <g>
          <path class="cls-2" d="M103.32,16.48c1.2,5.71,3.35,11.78,6.13,17.49,1.15,2.36,1.94,3.61,2.98,4.92l-8.22,5.66q-.68-1.47-1.2-2.57c-4.14-8.54-6.55-15.97-8.38-25.5h-5.87c-3.87,0-4.29,.05-4.98,.73-.63,.73-1,3.35-1,7.59,0,2.93,.21,7.02,.52,10.16,.42,3.88,.79,5.92,1.68,9.01l-9.69,.37c0-1.36-.11-2.57-.37-5.39-.47-5.24-.79-11.1-.79-15.29,0-7.17,.63-10.79,2.3-13.2,1.2-1.62,2.93-2.57,5.66-2.93,1.05-.16,2.57-.21,5.55-.21h22.78c3.4,0,5.03-.05,6.97-.31v9.79c-1.78-.26-2.98-.31-7.02-.31h-7.07Z"/>
          <path class="cls-2" d="M77.08,60.05h-3.61s0-9.53,0-9.53c2.88,.31,4.66,.42,8.54,.42h26.92c2.25,0,3.87-.05,6.02-.21-.16,1.83-.21,2.88-.21,6.34v28.23c0,3.25,0,4.03,.21,6.49-1.83-.11-3.72-.16-6.18-.16h-26.55c-4.03,0-6.55,.1-8.64,.37v-9.48s3.51,0,3.51,0v-22.47Zm29.27,22.47v-22.47s-20.89,0-20.89,0v22.47s20.89,0,20.89,0Z"/>
          <path class="cls-2" d="M105.21,101.6c-2.36,6.02-4.29,9.9-7.38,14.61l-8.22-4.45c3.35-4.5,5.87-9.11,8.12-14.98l7.49,4.82Zm-22.89-3.3c.11,4.61,1.47,11.1,3.46,16.18,2.41,6.18,6.02,10.84,11.26,14.66,3.51,2.51,6.55,4.03,11.52,5.76-3.3,3.14-4.66,4.66-6.49,7.65-6.28-2.67-9.9-4.82-13.67-8.17-6.08-5.29-10.16-11.78-12.83-20.21-.99-3.09-1.52-5.34-2.3-9.53-.26-1.52-.52-2.57-.84-3.72l9.9-2.62Zm35.72,7.23c-2.25,6.18-4.29,10.63-6.86,15.03l-8.01-4.66c3.51-5.39,5.66-9.74,7.49-15.03l7.38,4.66Z"/>
        </g>
      </g>
      <g>
        <g>
          <g>
            <path class="cls-1" d="M98.3,109.34c0,1.68-1.37,3.05-3.05,3.05s-3.05-1.37-3.05-3.05,1.37-3.05,3.05-3.05,3.05,1.37,3.05,3.05Zm-5.83,0c0,1.53,1.25,2.78,2.78,2.78s2.78-1.25,2.78-2.78-1.25-2.78-2.78-2.78-2.78,1.25-2.78,2.78Z"/>
            <path class="cls-1" d="M98.3,107.73c0,1.68-1.37,3.05-3.05,3.05s-3.05-1.37-3.05-3.05,1.37-3.05,3.05-3.05,3.05,1.37,3.05,3.05Zm-5.83,0c0,1.53,1.25,2.78,2.78,2.78s2.78-1.25,2.78-2.78-1.25-2.78-2.78-2.78-2.78,1.25-2.78,2.78Z"/>
            <path class="cls-1" d="M98.3,106.12c0,1.68-1.37,3.05-3.05,3.05s-3.05-1.37-3.05-3.05,1.37-3.05,3.05-3.05,3.05,1.37,3.05,3.05Zm-5.83,0c0,1.53,1.25,2.78,2.78,2.78s2.78-1.25,2.78-2.78-1.25-2.78-2.78-2.78-2.78,1.25-2.78,2.78Z"/>
          </g>
          <g>
            <path class="cls-1" d="M98.3,98.7c0,1.68-1.37,3.05-3.05,3.05s-3.05-1.37-3.05-3.05v-.06l.04-.04c.72-.77,1.82-1.21,3.01-1.21s2.29,.44,3.01,1.21l.04,.04v.06Zm-5.83,.05c.03,1.51,1.27,2.72,2.78,2.72s2.75-1.22,2.78-2.72c-.67-.69-1.68-1.09-2.78-1.09s-2.11,.4-2.78,1.09Z"/>
            <path class="cls-1" d="M98.3,98.77l-.06,.05c-.72,.75-1.81,1.19-2.99,1.19s-2.27-.43-2.99-1.19l-.06-.05v-.07c0-1.68,1.37-3.05,3.05-3.05s3.05,1.37,3.05,3.05v.07Zm-5.83-.13c.67,.69,1.68,1.09,2.78,1.09s2.12-.41,2.78-1.09c-.03-1.5-1.27-2.72-2.78-2.72s-2.75,1.21-2.78,2.72Z"/>
            <g>
              <path class="cls-1" d="M94.36,98.7c0,.37-.06,.72-.18,1.05-.17,.46-.45,.87-.8,1.2l-.19-.2c.33-.3,.58-.68,.73-1.09,.22-.61,.22-1.3,0-1.91-.15-.41-.41-.79-.73-1.09l.19-.2c.36,.33,.64,.74,.8,1.2,.12,.34,.19,.69,.19,1.05Z"/>
              <path class="cls-1" d="M97.31,96.65c-.33,.3-.58,.68-.73,1.09-.23,.62-.22,1.31,0,1.91,.15,.42,.41,.79,.73,1.09l-.19,.2c-.36-.33-.64-.74-.8-1.2-.25-.68-.24-1.43,0-2.1,.17-.46,.45-.87,.81-1.2l.19,.2Z"/>
            </g>
            <rect class="cls-1" x="95.11" y="95.78" width=".28" height="5.83"/>
            <rect class="cls-1" x="92.33" y="98.56" width="5.83" height=".28"/>
          </g>
          <g>
            <path class="cls-1" d="M98.3,116.76c0,1.68-1.37,3.05-3.05,3.05s-3.05-1.37-3.05-3.05,1.37-3.05,3.05-3.05,3.05,1.37,3.05,3.05Zm-5.83,0c0,1.53,1.25,2.78,2.78,2.78s2.78-1.25,2.78-2.78-1.25-2.78-2.78-2.78-2.78,1.25-2.78,2.78Z"/>
            <g>
              <path class="cls-1" d="M96.81,116.76l-1.56,2-1.56-2,1.56-2,1.56,2Zm-1.56,1.56l1.21-1.56-1.21-1.56-1.21,1.56,1.21,1.56Z"/>
              <path class="cls-1" d="M95.87,116.76c0,.34-.28,.62-.62,.62s-.62-.28-.62-.62,.28-.62,.62-.62,.62,.28,.62,.62Zm-.97,0c0,.19,.16,.35,.35,.35s.35-.16,.35-.35-.16-.35-.35-.35-.35,.16-.35,.35Z"/>
            </g>
          </g>
        </g>
        <g>
          <path class="cls-1" d="M93.37,91.85v.5l.32,.11v.23l-1.28-.48v-.25l1.28-.47v.24l-.32,.11Zm-.18,.06l-.32,.11-.25,.08,.25,.08,.32,.11v-.37Z"/>
          <path class="cls-1" d="M93.23,91.38c-.31,0-.49-.17-.49-.44,0-.23,.12-.38,.34-.41v.2c-.11,.03-.17,.1-.17,.21,0,.16,.12,.24,.32,.24s.32-.09,.32-.24c0-.11-.07-.18-.18-.21v-.2c.22,.04,.35,.18,.35,.42,0,.27-.18,.44-.49,.44Z"/>
          <path class="cls-1" d="M92.73,89.82h.2s0,.04,0,.06c0,.14,.09,.24,.28,.25h.48v.21h-.93v-.2h.17c-.12-.04-.2-.13-.2-.25,0-.02,0-.04,0-.06Z"/>
          <path class="cls-1" d="M93.28,88.82v.69c.17,0,.27-.1,.27-.25,0-.11-.05-.18-.15-.22l.02-.2c.2,.06,.3,.21,.3,.42,0,.29-.21,.46-.5,.46s-.48-.17-.48-.45,.19-.45,.49-.45h.05Zm-.15,.68v-.47c-.15,.02-.24,.1-.24,.24s.08,.23,.24,.24Z"/>
          <path class="cls-1" d="M92.4,87.79h1.28v.19h-.13c.1,.06,.16,.16,.16,.29,0,.24-.21,.4-.5,.4s-.48-.17-.48-.39c0-.12,.04-.21,.12-.28h-.46v-.21Zm.81,.2c-.19,0-.3,.1-.3,.24s.11,.23,.3,.23,.32-.09,.32-.23-.12-.24-.31-.24Z"/>
          <path class="cls-1" d="M92.4,87.54v-.21h.21v.21h-.21Zm.35,0v-.21h.93v.21h-.93Z"/>
          <path class="cls-1" d="M93.42,86.81c.07,0,.09-.02,.09-.09v-.1h.17v.17c0,.17-.07,.23-.23,.23h-.54v.13s-.15,0-.15,0v-.13s-.29,0-.29,0v-.21h.29v-.19s.15,0,.15,0v.19s.51,0,.51,0Z"/>
          <path class="cls-1" d="M93.69,85.86s-.07,.02-.11,.02c.08,.06,.13,.17,.13,.3,0,.19-.11,.32-.28,.32-.15,0-.25-.09-.28-.3l-.05-.29s0-.02,0-.03h-.08c-.08,0-.12,.06-.12,.18s.04,.17,.14,.19v.2c-.21-.02-.3-.15-.3-.39s.1-.38,.32-.38h.42c.08,0,.13,0,.21-.04v.21Zm-.35,.03h-.1l.05,.26c.02,.1,.07,.15,.14,.15,.08,0,.13-.06,.13-.16,0-.13-.09-.24-.21-.24Z"/>
          <path class="cls-1" d="M93.06,84.13h.63v.21h-.6c-.09,0-.16,.05-.16,.14,0,.1,.08,.2,.26,.2h.5v.21h-.6c-.09,0-.16,.05-.16,.14,0,.1,.08,.19,.27,.19h.5v.21h-.93v-.2h.13c-.1-.06-.15-.15-.15-.27,0-.13,.06-.22,.17-.26-.11-.06-.17-.16-.17-.28,0-.19,.12-.29,.32-.29Z"/>
          <path class="cls-1" d="M93.22,83.93c-.29,0-.49-.19-.49-.46s.2-.46,.49-.46,.49,.19,.49,.46-.2,.46-.49,.46Zm0-.72c-.19,0-.32,.1-.32,.26s.13,.25,.32,.25,.32-.1,.32-.25-.13-.26-.32-.26Z"/>
          <path class="cls-1" d="M93.4,82.86v-.2c.1-.01,.16-.08,.16-.22,0-.12-.05-.19-.12-.19-.06,0-.1,.04-.11,.13l-.04,.19c-.04,.18-.13,.26-.26,.26-.17,0-.29-.13-.29-.36s.1-.37,.3-.39v.2c-.09,.02-.14,.08-.14,.2,0,.1,.04,.16,.11,.16,.05,0,.09-.04,.11-.12l.04-.19c.04-.19,.13-.27,.26-.27,.19,0,.3,.15,.3,.4s-.11,.38-.31,.41Z"/>
          <path class="cls-1" d="M93.05,80.6h.63v.21h-.59c-.11,0-.18,.05-.18,.16,0,.12,.08,.22,.26,.22h.51v.21h-.93v-.2h.13c-.1-.07-.15-.17-.15-.29,0-.19,.12-.31,.32-.31Z"/>
          <path class="cls-1" d="M93.69,79.76s-.07,.02-.11,.02c.08,.06,.13,.17,.13,.3,0,.19-.11,.32-.28,.32-.15,0-.25-.09-.28-.3l-.05-.29s0-.02,0-.03h-.08c-.08,0-.12,.06-.12,.18s.04,.17,.14,.19v.2c-.21-.02-.3-.15-.3-.39s.1-.38,.32-.38h.42c.08,0,.13,0,.21-.04v.21Zm-.35,.03h-.1l.05,.26c.02,.1,.07,.15,.14,.15,.08,0,.13-.06,.13-.16,0-.13-.09-.24-.21-.24Z"/>
          <path class="cls-1" d="M92.73,78.35h.2s0,.04,0,.06c0,.14,.09,.24,.28,.25h.48v.21h-.93v-.2h.17c-.12-.04-.2-.13-.2-.25,0-.02,0-.04,0-.06Z"/>
          <path class="cls-1" d="M93.28,77.35v.69c.17,0,.27-.1,.27-.25,0-.11-.05-.18-.15-.22l.02-.2c.2,.06,.3,.21,.3,.42,0,.29-.21,.46-.5,.46s-.48-.17-.48-.45,.19-.45,.49-.45h.05Zm-.15,.68v-.47c-.15,.02-.24,.1-.24,.24s.08,.23,.24,.24Z"/>
          <path class="cls-1" d="M92.4,77.15v-.21h1.28v.21h-1.28Z"/>
          <path class="cls-1" d="M93.69,76.1s-.07,.02-.11,.02c.08,.06,.13,.17,.13,.3,0,.19-.11,.32-.28,.32-.15,0-.25-.09-.28-.3l-.05-.29s0-.02,0-.03h-.08c-.08,0-.12,.06-.12,.18s.04,.17,.14,.19v.2c-.21-.02-.3-.15-.3-.39s.1-.38,.32-.38h.42c.08,0,.13,0,.21-.04v.21Zm-.35,.03h-.1l.05,.26c.02,.1,.07,.15,.14,.15,.08,0,.13-.06,.13-.16,0-.13-.09-.24-.21-.24Z"/>
          <path class="cls-1" d="M93.36,75.08v-.2c.21,.03,.33,.16,.35,.37l.09,.06v-.03c0-.11,.06-.18,.16-.18,.12,0,.18,.1,.18,.25v.07h-.11v-.05c0-.08-.03-.1-.06-.1-.03,0-.05,.02-.05,.06v.06l-.09,.06-.13-.08c-.03,.23-.2,.37-.48,.37-.31,0-.49-.17-.49-.44,0-.23,.12-.38,.34-.41v.2c-.11,.03-.17,.1-.17,.21,0,.16,.12,.24,.32,.24s.32-.09,.32-.24c0-.11-.07-.18-.18-.21Z"/>
          <path class="cls-1" d="M93.69,74.1s-.07,.02-.11,.02c.08,.06,.13,.17,.13,.3,0,.19-.11,.32-.28,.32-.15,0-.25-.09-.28-.3l-.05-.29s0-.02,0-.03h-.08c-.08,0-.12,.06-.12,.18s.04,.17,.14,.19v.2c-.21-.02-.3-.15-.3-.39s.1-.38,.32-.38h.42c.08,0,.13,0,.21-.04v.21Zm-1.06,.41v.16c-.21,0-.3-.09-.3-.22,0-.15,.12-.18,.12-.27,0-.05-.04-.08-.12-.08v-.16c.22,0,.3,.09,.3,.22,0,.15-.12,.18-.12,.27,0,.05,.04,.08,.12,.08Zm.72-.38h-.1l.05,.26c.02,.1,.07,.15,.14,.15,.08,0,.13-.06,.13-.16,0-.13-.09-.24-.21-.24Z"/>
          <path class="cls-1" d="M93.22,73.72c-.29,0-.49-.19-.49-.46s.2-.46,.49-.46,.49,.19,.49,.46-.2,.46-.49,.46Zm0-.72c-.19,0-.32,.1-.32,.26s.13,.25,.32,.25,.32-.1,.32-.25-.13-.26-.32-.26Z"/>
          <path class="cls-1" d="M92.4,71.31h1.28v.19h-.13c.1,.06,.16,.16,.16,.29,0,.24-.21,.4-.5,.4s-.48-.17-.48-.39c0-.12,.04-.21,.12-.28h-.46v-.21Zm.81,.2c-.19,0-.3,.1-.3,.24s.11,.23,.3,.23,.32-.09,.32-.23-.12-.24-.31-.24Z"/>
          <path class="cls-1" d="M93.28,70.21v.69c.17,0,.27-.1,.27-.25,0-.11-.05-.18-.15-.22l.02-.2c.2,.06,.3,.21,.3,.42,0,.29-.21,.46-.5,.46s-.48-.17-.48-.45,.19-.45,.49-.45h.05Zm-.15,.68v-.47c-.15,.02-.24,.1-.24,.24s.08,.23,.24,.24Z"/>
          <path class="cls-1" d="M92.4,69.54v-.21h1.28v.21h-1.28Z"/>
          <path class="cls-1" d="M93.22,69.13c-.29,0-.49-.19-.49-.46s.2-.46,.49-.46,.49,.19,.49,.46-.2,.46-.49,.46Zm0-.72c-.19,0-.32,.1-.32,.26s.13,.25,.32,.25,.32-.1,.32-.25-.13-.26-.32-.26Z"/>
          <path class="cls-1" d="M93.05,67.21h.63v.21h-.59c-.11,0-.18,.05-.18,.16,0,.12,.08,.22,.26,.22h.51v.21h-.93v-.2h.13c-.1-.07-.15-.17-.15-.29,0-.19,.12-.31,.32-.31Z"/>
          <path class="cls-1" d="M92.76,66.13h.92c.27,0,.4,.17,.4,.44,0,.24-.1,.39-.29,.41v-.2c.1-.02,.13-.09,.13-.21,0-.17-.07-.23-.23-.23h-.12c.08,.06,.13,.16,.13,.27,0,.24-.2,.4-.49,.4s-.47-.17-.47-.4c0-.13,.05-.23,.15-.29h-.13v-.19Zm.45,.21c-.19,0-.3,.1-.3,.24s.11,.23,.3,.23,.31-.09,.31-.23-.12-.24-.31-.24Z"/>
          <path class="cls-1" d="M93.22,65.93c-.29,0-.49-.19-.49-.46s.2-.46,.49-.46,.49,.19,.49,.46-.2,.46-.49,.46Zm0-.72c-.19,0-.32,.1-.32,.26s.13,.25,.32,.25,.32-.1,.32-.25-.13-.26-.32-.26Z"/>
          <path class="cls-1" d="M93.21,63.46c.29,0,.5,.16,.5,.4,0,.11-.04,.2-.12,.26h.47v.21h-1.3v-.19h.13c-.1-.07-.15-.17-.15-.3,0-.22,.18-.39,.47-.39Zm0,.21c-.19,0-.3,.09-.3,.23s.11,.24,.3,.24,.31-.1,.31-.24-.13-.23-.32-.23Z"/>
          <path class="cls-1" d="M92.73,62.75h.2s0,.04,0,.06c0,.14,.09,.24,.28,.25h.48v.21h-.93v-.2h.17c-.12-.04-.2-.13-.2-.25,0-.02,0-.04,0-.06Z"/>
          <path class="cls-1" d="M93.69,62.02s-.07,.02-.11,.02c.08,.06,.13,.17,.13,.3,0,.19-.11,.32-.28,.32-.15,0-.25-.09-.28-.3l-.05-.29s0-.02,0-.03h-.08c-.08,0-.12,.06-.12,.18s.04,.17,.14,.19v.2c-.21-.02-.3-.15-.3-.39s.1-.38,.32-.38h.42c.08,0,.13,0,.21-.04v.21Zm-.35,.03h-.1l.05,.26c.02,.1,.07,.15,.14,.15,.08,0,.13-.06,.13-.16,0-.13-.09-.24-.21-.24Z"/>
          <path class="cls-1" d="M93.51,60.87h.17v.79h-.16l-.6-.51v.47h-.17v-.72h.16l.6,.51v-.53Z"/>
          <path class="cls-1" d="M93.22,60.75c-.29,0-.49-.19-.49-.46s.2-.46,.49-.46,.49,.19,.49,.46-.2,.46-.49,.46Zm0-.72c-.19,0-.32,.1-.32,.26s.13,.25,.32,.25,.32-.1,.32-.25-.13-.26-.32-.26Z"/>
          <path class="cls-1" d="M93.86,59.62v-.03c0-.07-.03-.1-.1-.1h-.07v.13s-.22,0-.22,0v-.25h.28c.14,0,.21,.07,.21,.22v.03h-.1Z"/>
          <path class="cls-1" d="M93.05,57.83h.63v.21h-.59c-.11,0-.18,.05-.18,.16,0,.12,.08,.22,.26,.22h.51v.21h-.93v-.2h.13c-.1-.07-.15-.17-.15-.29,0-.19,.12-.31,.32-.31Z"/>
          <path class="cls-1" d="M93.69,57s-.07,.02-.11,.02c.08,.06,.13,.17,.13,.3,0,.19-.11,.32-.28,.32-.15,0-.25-.09-.28-.3l-.05-.29s0-.02,0-.03h-.08c-.08,0-.12,.06-.12,.18s.04,.17,.14,.19v.2c-.21-.02-.3-.15-.3-.39s.1-.38,.32-.38h.42c.08,0,.13,0,.21-.04v.21Zm-.35,.03h-.1l.05,.26c.02,.1,.07,.15,.14,.15,.08,0,.13-.06,.13-.16,0-.13-.09-.24-.21-.24Z"/>
          <path class="cls-1" d="M93.23,56.16c-.31,0-.49-.17-.49-.44,0-.23,.12-.38,.34-.41v.2c-.11,.03-.17,.1-.17,.21,0,.16,.12,.24,.32,.24s.32-.09,.32-.24c0-.11-.07-.18-.18-.21v-.2c.22,.04,.35,.18,.35,.42,0,.27-.18,.44-.49,.44Z"/>
          <path class="cls-1" d="M93.22,55.16c-.29,0-.49-.19-.49-.46s.2-.46,.49-.46,.49,.19,.49,.46-.2,.46-.49,.46Zm0-.72c-.19,0-.32,.1-.32,.26s.13,.25,.32,.25,.32-.1,.32-.25-.13-.26-.32-.26Z"/>
          <path class="cls-1" d="M93.05,53.24h.63v.21h-.59c-.11,0-.18,.05-.18,.16,0,.12,.08,.22,.26,.22h.51v.21h-.93v-.2h.13c-.1-.07-.15-.17-.15-.29,0-.19,.12-.31,.32-.31Z"/>
          <path class="cls-1" d="M93.4,53.04v-.2c.1-.01,.16-.08,.16-.22,0-.12-.05-.19-.12-.19-.06,0-.1,.04-.11,.13l-.04,.19c-.04,.18-.13,.26-.26,.26-.17,0-.29-.13-.29-.36s.1-.37,.3-.39v.2c-.09,.02-.14,.08-.14,.2,0,.1,.04,.16,.11,.16,.05,0,.09-.04,.11-.12l.04-.19c.04-.19,.13-.27,.26-.27,.19,0,.3,.15,.3,.4s-.11,.38-.31,.41Z"/>
          <path class="cls-1" d="M93.42,51.78c.07,0,.09-.02,.09-.09v-.1h.17v.17c0,.17-.07,.23-.23,.23h-.54v.13s-.15,0-.15,0v-.13s-.29,0-.29,0v-.21h.29v-.19s.15,0,.15,0v.19s.51,0,.51,0Z"/>
          <path class="cls-1" d="M92.73,50.9h.2s0,.04,0,.06c0,.14,.09,.24,.28,.25h.48v.21h-.93v-.2h.17c-.12-.04-.2-.13-.2-.25,0-.02,0-.04,0-.06Z"/>
          <path class="cls-1" d="M92.76,49.94h.93v.2h-.13c.1,.07,.15,.17,.15,.29,0,.19-.12,.31-.32,.31h-.63v-.21h.59c.11,0,.18-.05,.18-.16,0-.12-.08-.22-.26-.22h-.51v-.21Z"/>
          <path class="cls-1" d="M93.36,49.09v-.2c.21,.03,.33,.16,.35,.37l.09,.06v-.03c0-.11,.06-.18,.16-.18,.12,0,.18,.1,.18,.25v.07h-.11v-.05c0-.08-.03-.1-.06-.1-.03,0-.05,.02-.05,.06v.06l-.09,.06-.13-.08c-.03,.23-.2,.37-.48,.37-.31,0-.49-.17-.49-.44,0-.23,.12-.38,.34-.41v.2c-.11,.03-.17,.1-.17,.21,0,.16,.12,.24,.32,.24s.32-.09,.32-.24c0-.11-.07-.18-.18-.21Z"/>
          <path class="cls-1" d="M93.69,48.11s-.07,.02-.11,.02c.08,.06,.13,.17,.13,.3,0,.19-.11,.32-.28,.32-.15,0-.25-.09-.28-.3l-.05-.29s0-.02,0-.03h-.08c-.08,0-.12,.06-.12,.18s.04,.17,.14,.19v.2c-.21-.02-.3-.15-.3-.39s.1-.38,.32-.38h.42c.08,0,.13,0,.21-.04v.21Zm-1.06,.41v.16c-.21,0-.3-.09-.3-.22,0-.15,.12-.18,.12-.27,0-.05-.04-.08-.12-.08v-.16c.22,0,.3,.09,.3,.22,0,.15-.12,.18-.12,.27,0,.05,.04,.08,.12,.08Zm.72-.38h-.1l.05,.26c.02,.1,.07,.15,.14,.15,.08,0,.13-.06,.13-.16,0-.13-.09-.24-.21-.24Z"/>
          <path class="cls-1" d="M93.22,47.74c-.29,0-.49-.19-.49-.46s.2-.46,.49-.46,.49,.19,.49,.46-.2,.46-.49,.46Zm0-.72c-.19,0-.32,.1-.32,.26s.13,.25,.32,.25,.32-.1,.32-.25-.13-.26-.32-.26Z"/>
          <path class="cls-1" d="M93.69,45.56s-.07,.02-.11,.02c.08,.06,.13,.17,.13,.3,0,.19-.11,.32-.28,.32-.15,0-.25-.09-.28-.3l-.05-.29s0-.02,0-.03h-.08c-.08,0-.12,.06-.12,.18s.04,.17,.14,.19v.2c-.21-.02-.3-.15-.3-.39s.1-.38,.32-.38h.42c.08,0,.13,0,.21-.04v.21Zm-1.04,.25l-.27,.23v-.27l.27-.12v.16Zm.69-.22h-.1l.05,.26c.02,.1,.07,.15,.14,.15,.08,0,.13-.06,.13-.16,0-.13-.09-.24-.21-.24Z"/>
          <path class="cls-1" d="M93.22,43.7h.18v.2h.29v.22h-.29v.59h-.22l-.78-.6v-.21h.82v-.2Zm-.5,.42h0s.5,.39,.5,.39v-.39h-.5Z"/>
          <path class="cls-1" d="M93.06,41.72h.63v.21h-.6c-.09,0-.16,.05-.16,.14,0,.1,.08,.2,.26,.2h.5v.21h-.6c-.09,0-.16,.05-.16,.14,0,.1,.08,.19,.27,.19h.5v.21h-.93v-.2h.13c-.1-.06-.15-.15-.15-.27,0-.13,.06-.22,.17-.26-.11-.06-.17-.16-.17-.28,0-.19,.12-.29,.32-.29Z"/>
          <path class="cls-1" d="M93.69,40.88s-.07,.02-.11,.02c.08,.06,.13,.17,.13,.3,0,.19-.11,.32-.28,.32-.15,0-.25-.09-.28-.3l-.05-.29s0-.02,0-.03h-.08c-.08,0-.12,.06-.12,.18s.04,.17,.14,.19v.2c-.21-.02-.3-.15-.3-.39s.1-.38,.32-.38h.42c.08,0,.13,0,.21-.04v.21Zm-1.06,.41v.16c-.21,0-.3-.09-.3-.22,0-.15,.12-.18,.12-.27,0-.05-.04-.08-.12-.08v-.16c.22,0,.3,.09,.3,.22,0,.15-.12,.18-.12,.27,0,.05,.04,.08,.12,.08Zm.72-.38h-.1l.05,.26c.02,.1,.07,.15,.14,.15,.08,0,.13-.06,.13-.16,0-.13-.09-.24-.21-.24Z"/>
          <path class="cls-1" d="M93.22,40.51c-.29,0-.49-.19-.49-.46s.2-.46,.49-.46,.49,.19,.49,.46-.2,.46-.49,.46Zm0-.72c-.19,0-.32,.1-.32,.26s.13,.25,.32,.25,.32-.1,.32-.25-.13-.26-.32-.26Z"/>
          <path class="cls-1" d="M93.4,39.44v-.2c.1-.01,.16-.08,.16-.22,0-.12-.05-.19-.12-.19-.06,0-.1,.04-.11,.13l-.04,.19c-.04,.18-.13,.26-.26,.26-.17,0-.29-.13-.29-.36s.1-.37,.3-.39v.2c-.09,.02-.14,.08-.14,.2,0,.1,.04,.16,.11,.16,.05,0,.09-.04,.11-.12l.04-.19c.04-.19,.13-.27,.26-.27,.19,0,.3,.15,.3,.4s-.11,.38-.31,.41Z"/>
          <path class="cls-1" d="M93.86,38.43v-.03c0-.07-.03-.1-.1-.1h-.07v.13s-.22,0-.22,0v-.25h.28c.14,0,.21,.07,.21,.22v.03h-.1Z"/>
          <path class="cls-1" d="M93.28,36.61v.69c.17,0,.27-.1,.27-.25,0-.11-.05-.18-.15-.22l.02-.2c.2,.06,.3,.21,.3,.42,0,.29-.21,.46-.5,.46s-.48-.17-.48-.45,.19-.45,.49-.45h.05Zm-.15,.68v-.47c-.15,.02-.24,.1-.24,.24s.08,.23,.24,.24Z"/>
          <path class="cls-1" d="M93.05,35.61h.63v.21h-.59c-.11,0-.18,.05-.18,.16,0,.12,.08,.22,.26,.22h.51v.21h-.93v-.2h.13c-.1-.07-.15-.17-.15-.29,0-.19,.12-.31,.32-.31Z"/>
          <path class="cls-1" d="M93.42,35.09c.07,0,.09-.02,.09-.09v-.1h.17v.17c0,.17-.07,.23-.23,.23h-.54v.13s-.15,0-.15,0v-.13s-.29,0-.29,0v-.21h.29v-.19s.15,0,.15,0v.19s.51,0,.51,0Z"/>
          <path class="cls-1" d="M93.28,33.88v.69c.17,0,.27-.1,.27-.25,0-.11-.05-.18-.15-.22l.02-.2c.2,.06,.3,.21,.3,.42,0,.29-.21,.46-.5,.46s-.48-.17-.48-.45,.19-.45,.49-.45h.05Zm-.15,.68v-.47c-.15,.02-.24,.1-.24,.24s.08,.23,.24,.24Z"/>
          <path class="cls-1" d="M93.05,32.88h.63v.21h-.59c-.11,0-.18,.05-.18,.16,0,.12,.08,.22,.26,.22h.51v.21h-.93v-.2h.13c-.1-.07-.15-.17-.15-.29,0-.19,.12-.31,.32-.31Z"/>
          <path class="cls-1" d="M92.4,31.8h1.28v.19h-.13c.1,.06,.16,.16,.16,.29,0,.24-.21,.4-.5,.4s-.48-.17-.48-.39c0-.12,.04-.21,.12-.28h-.46v-.21Zm.81,.2c-.19,0-.3,.1-.3,.24s.11,.23,.3,.23,.32-.09,.32-.23-.12-.24-.31-.24Z"/>
          <path class="cls-1" d="M93.28,30.7v.69c.17,0,.27-.1,.27-.25,0-.11-.05-.18-.15-.22l.02-.2c.2,.06,.3,.21,.3,.42,0,.29-.21,.46-.5,.46s-.48-.17-.48-.45,.19-.45,.49-.45h.05Zm-.15,.68v-.47c-.15,.02-.24,.1-.24,.24s.08,.23,.24,.24Z"/>
          <path class="cls-1" d="M93.05,29.7h.63v.21h-.59c-.11,0-.18,.05-.18,.16,0,.12,.08,.22,.26,.22h.51v.21h-.93v-.2h.13c-.1-.07-.15-.17-.15-.29,0-.19,.12-.31,.32-.31Z"/>
          <path class="cls-1" d="M92.4,28.62h1.28v.19h-.13c.1,.06,.16,.16,.16,.29,0,.24-.21,.4-.5,.4s-.48-.17-.48-.39c0-.12,.04-.21,.12-.28h-.46v-.21Zm.81,.2c-.19,0-.3,.1-.3,.24s.11,.23,.3,.23,.32-.09,.32-.23-.12-.24-.31-.24Z"/>
          <path class="cls-1" d="M93.22,28.43c-.29,0-.49-.19-.49-.46s.2-.46,.49-.46,.49,.19,.49,.46-.2,.46-.49,.46Zm0-.72c-.19,0-.32,.1-.32,.26s.13,.25,.32,.25,.32-.1,.32-.25-.13-.26-.32-.26Z"/>
          <path class="cls-1" d="M92.73,26.32h.2s0,.04,0,.06c0,.14,.09,.24,.28,.25h.48v.21h-.93v-.2h.17c-.12-.04-.2-.13-.2-.25,0-.02,0-.04,0-.06Z"/>
          <path class="cls-1" d="M93.28,25.32v.69c.17,0,.27-.1,.27-.25,0-.11-.05-.18-.15-.22l.02-.2c.2,.06,.3,.21,.3,.42,0,.29-.21,.46-.5,.46s-.48-.17-.48-.45,.19-.45,.49-.45h.05Zm-.15,.68v-.47c-.15,.02-.24,.1-.24,.24s.08,.23,.24,.24Z"/>
          <path class="cls-1" d="M93.69,24.53s-.07,.02-.11,.02c.08,.06,.13,.17,.13,.3,0,.19-.11,.32-.28,.32-.15,0-.25-.09-.28-.3l-.05-.29s0-.02,0-.03h-.08c-.08,0-.12,.06-.12,.18s.04,.17,.14,.19v.2c-.21-.02-.3-.15-.3-.39s.1-.38,.32-.38h.42c.08,0,.13,0,.21-.04v.21Zm-.35,.03h-.1l.05,.26c.02,.1,.07,.15,.14,.15,.08,0,.13-.06,.13-.16,0-.13-.09-.24-.21-.24Z"/>
          <path class="cls-1" d="M92.4,24.11v-.21h1.28v.21h-1.28Z"/>
          <path class="cls-1" d="M93.06,22.34h.63v.21h-.6c-.09,0-.16,.05-.16,.14,0,.1,.08,.2,.26,.2h.5v.21h-.6c-.09,0-.16,.05-.16,.14,0,.1,.08,.19,.27,.19h.5v.21h-.93v-.2h.13c-.1-.06-.15-.15-.15-.27,0-.13,.06-.22,.17-.26-.11-.06-.17-.16-.17-.28,0-.19,.12-.29,.32-.29Z"/>
          <path class="cls-1" d="M93.28,21.24v.69c.17,0,.27-.1,.27-.25,0-.11-.05-.18-.15-.22l.02-.2c.2,.06,.3,.21,.3,.42,0,.29-.21,.46-.5,.46s-.48-.17-.48-.45,.19-.45,.49-.45h.05Zm-.15,.68v-.47c-.15,.02-.24,.1-.24,.24s.08,.23,.24,.24Z"/>
          <path class="cls-1" d="M93.05,20.24h.63v.21h-.59c-.11,0-.18,.05-.18,.16,0,.12,.08,.22,.26,.22h.51v.21h-.93v-.2h.13c-.1-.07-.15-.17-.15-.29,0-.19,.12-.31,.32-.31Z"/>
          <path class="cls-1" d="M93.42,19.72c.07,0,.09-.02,.09-.09v-.1h.17v.17c0,.17-.07,.23-.23,.23h-.54v.13s-.15,0-.15,0v-.13s-.29,0-.29,0v-.21h.29v-.19s.15,0,.15,0v.19s.51,0,.51,0Z"/>
          <path class="cls-1" d="M93.28,18.51v.69c.17,0,.27-.1,.27-.25,0-.11-.05-.18-.15-.22l.02-.2c.2,.06,.3,.21,.3,.42,0,.29-.21,.46-.5,.46s-.48-.17-.48-.45,.19-.45,.49-.45h.05Zm-.15,.68v-.47c-.15,.02-.24,.1-.24,.24s.08,.23,.24,.24Z"/>
          <path class="cls-1" d="M95.85,92.03s-.07,.02-.11,.02c.08,.06,.13,.17,.13,.3,0,.19-.11,.32-.28,.32-.15,0-.25-.09-.28-.3l-.05-.29s0-.02,0-.03h-.08c-.08,0-.12,.06-.12,.18s.04,.17,.14,.19v.2c-.21-.02-.3-.15-.3-.39s.1-.38,.32-.38h.42c.08,0,.13,0,.21-.04v.21Zm-.35,.03h-.1l.05,.26c.02,.1,.07,.15,.14,.15,.08,0,.13-.06,.13-.16,0-.13-.09-.24-.21-.24Z"/>
          <path class="cls-1" d="M94.56,90.32h1.28v.19h-.13c.1,.06,.16,.16,.16,.29,0,.24-.21,.4-.5,.4s-.48-.17-.48-.39c0-.12,.05-.21,.12-.28h-.46v-.21Zm.81,.2c-.19,0-.3,.1-.3,.24s.11,.23,.3,.23,.32-.09,.32-.23-.12-.24-.31-.24Z"/>
          <path class="cls-1" d="M94.56,90.07v-.21h.21v.21h-.21Zm.35,0v-.21h.93v.21h-.93Z"/>
          <path class="cls-1" d="M95.21,88.8h.63v.21h-.59c-.11,0-.18,.05-.18,.16,0,.12,.08,.22,.26,.22h.51v.21h-.93v-.2h.13c-.1-.07-.15-.17-.15-.29,0-.19,.12-.31,.32-.31Z"/>
          <path class="cls-1" d="M95.85,87.96s-.07,.02-.11,.02c.08,.06,.13,.17,.13,.3,0,.19-.11,.32-.28,.32-.15,0-.25-.09-.28-.3l-.05-.29s0-.02,0-.03h-.08c-.08,0-.12,.06-.12,.18s.04,.17,.14,.19v.2c-.21-.02-.3-.15-.3-.39s.1-.38,.32-.38h.42c.08,0,.13,0,.21-.04v.21Zm-1.05,.32v.2l-.27-.21v-.21l.27-.21v.2l-.16,.12,.16,.12Zm.7-.29h-.1l.05,.26c.02,.1,.07,.15,.14,.15,.08,0,.13-.06,.13-.16,0-.13-.09-.24-.21-.24Z"/>
          <path class="cls-1" d="M95.22,86.23h.63v.21h-.6c-.09,0-.16,.05-.16,.14,0,.1,.08,.2,.26,.2h.5v.21h-.6c-.09,0-.16,.05-.16,.14,0,.1,.08,.19,.27,.19h.5v.21h-.93v-.2h.13c-.1-.06-.15-.15-.15-.27,0-.13,.06-.22,.17-.26-.11-.06-.17-.16-.17-.28,0-.19,.12-.29,.32-.29Z"/>
          <path class="cls-1" d="M94.56,85.98v-.21h.21v.21h-.21Zm.35,0v-.21h.93v.21h-.93Z"/>
          <path class="cls-1" d="M95.39,85.57c-.31,0-.49-.17-.49-.44,0-.23,.12-.38,.34-.41v.2c-.11,.03-.17,.1-.17,.21,0,.16,.12,.24,.32,.24s.32-.09,.32-.24c0-.11-.07-.18-.18-.21v-.2c.22,.04,.35,.18,.35,.42,0,.27-.18,.44-.49,.44Z"/>
          <path class="cls-1" d="M95.85,83.94s-.07,.02-.11,.02c.08,.06,.13,.17,.13,.3,0,.19-.11,.32-.28,.32-.15,0-.25-.09-.28-.3l-.05-.29s0-.02,0-.03h-.08c-.08,0-.12,.06-.12,.18s.04,.17,.14,.19v.2c-.21-.02-.3-.15-.3-.39s.1-.38,.32-.38h.42c.08,0,.13,0,.21-.04v.21Zm-.35,.03h-.1l.05,.26c.02,.1,.07,.15,.14,.15,.08,0,.13-.06,.13-.16,0-.13-.09-.24-.21-.24Z"/>
          <path class="cls-1" d="M94.56,82.22h1.28v.19h-.13c.1,.06,.16,.16,.16,.29,0,.24-.21,.4-.5,.4s-.48-.17-.48-.39c0-.12,.05-.21,.12-.28h-.46v-.21Zm.81,.2c-.19,0-.3,.1-.3,.24s.11,.23,.3,.23,.32-.09,.32-.23-.12-.24-.31-.24Z"/>
          <path class="cls-1" d="M95.44,81.12v.69c.17,0,.27-.1,.27-.25,0-.11-.05-.18-.15-.22l.02-.2c.2,.06,.3,.21,.3,.42,0,.29-.21,.46-.5,.46s-.48-.17-.48-.45,.19-.45,.49-.45h.05Zm-.15,.68v-.47c-.15,.02-.24,.1-.24,.24s.08,.23,.24,.24Z"/>
          <path class="cls-1" d="M95.39,80.5c-.31,0-.49-.17-.49-.44,0-.23,.12-.38,.34-.41v.2c-.11,.03-.17,.1-.17,.21,0,.16,.12,.24,.32,.24s.32-.09,.32-.24c0-.11-.07-.18-.18-.21v-.2c.22,.04,.35,.18,.35,.42,0,.27-.18,.44-.49,.44Z"/>
          <path class="cls-1" d="M95.85,78.87s-.07,.02-.11,.02c.08,.06,.13,.17,.13,.3,0,.19-.11,.32-.28,.32-.15,0-.25-.09-.28-.3l-.05-.29s0-.02,0-.03h-.08c-.08,0-.12,.06-.12,.18s.04,.17,.14,.19v.2c-.21-.02-.3-.15-.3-.39s.1-.38,.32-.38h.42c.08,0,.13,0,.21-.04v.21Zm-.35,.03h-.1l.05,.26c.02,.1,.07,.15,.14,.15,.08,0,.13-.06,.13-.16,0-.13-.09-.24-.21-.24Z"/>
          <path class="cls-1" d="M94.56,77.62h1.28v.19h-.13c.1,.06,.16,.16,.16,.29,0,.24-.21,.4-.5,.4s-.48-.17-.48-.39c0-.12,.05-.21,.12-.28h-.46v-.21Zm.81,.2c-.19,0-.3,.1-.3,.24s.11,.23,.3,.23,.32-.09,.32-.23-.12-.24-.31-.24Z"/>
          <path class="cls-1" d="M95.85,76.78s-.07,.02-.11,.02c.08,.06,.13,.17,.13,.3,0,.19-.11,.32-.28,.32-.15,0-.25-.09-.28-.3l-.05-.29s0-.02,0-.03h-.08c-.08,0-.12,.06-.12,.18s.04,.17,.14,.19v.2c-.21-.02-.3-.15-.3-.39s.1-.38,.32-.38h.42c.08,0,.13,0,.21-.04v.21Zm-.35,.03h-.1l.05,.26c.02,.1,.07,.15,.14,.15,.08,0,.13-.06,.13-.16,0-.13-.09-.24-.21-.24Z"/>
          <path class="cls-1" d="M95.21,75.09h.63v.21h-.59c-.11,0-.18,.05-.18,.16,0,.12,.08,.22,.26,.22h.51v.21h-.93v-.2h.13c-.1-.07-.15-.17-.15-.29,0-.19,.12-.31,.32-.31Z"/>
          <path class="cls-1" d="M95.44,73.99v.69c.17,0,.27-.1,.27-.25,0-.11-.05-.18-.15-.22l.02-.2c.2,.06,.3,.21,.3,.42,0,.29-.21,.46-.5,.46s-.48-.17-.48-.45,.19-.45,.49-.45h.05Zm-.15,.68v-.47c-.15,.02-.24,.1-.24,.24s.08,.23,.24,.24Z"/>
          <path class="cls-1" d="M94.92,72.96h.92c.27,0,.4,.17,.4,.44,0,.24-.1,.39-.29,.41v-.2c.1-.02,.13-.09,.13-.21,0-.17-.07-.23-.23-.23h-.12c.08,.06,.13,.16,.13,.27,0,.24-.2,.4-.49,.4s-.47-.17-.47-.4c0-.13,.05-.23,.15-.29h-.13v-.19Zm.45,.21c-.19,0-.3,.1-.3,.24s.11,.23,.3,.23,.31-.09,.31-.23-.12-.24-.31-.24Z"/>
          <path class="cls-1" d="M95.38,72.76c-.29,0-.49-.19-.49-.46s.2-.46,.49-.46,.49,.19,.49,.46-.2,.46-.49,.46Zm0-.72c-.19,0-.32,.1-.32,.26s.13,.25,.32,.25,.32-.1,.32-.25-.13-.26-.32-.26Zm-.84,.26v-.27l.27,.23v.16l-.27-.12Z"/>
          <path class="cls-1" d="M95.39,71.69c-.31,0-.49-.17-.49-.44,0-.23,.12-.38,.34-.41v.2c-.11,.03-.17,.1-.17,.21,0,.16,.12,.24,.32,.24s.32-.09,.32-.24c0-.11-.07-.18-.18-.21v-.2c.22,.04,.35,.18,.35,.42,0,.27-.18,.44-.49,.44Z"/>
          <path class="cls-1" d="M94.56,70.65v-.21h.21v.21h-.21Zm.35,0v-.21h.93v.21h-.93Z"/>
          <path class="cls-1" d="M95.38,70.24c-.29,0-.49-.19-.49-.46s.2-.46,.49-.46,.49,.19,.49,.46-.2,.46-.49,.46Zm0-.72c-.19,0-.32,.1-.32,.26s.13,.25,.32,.25,.32-.1,.32-.25-.13-.26-.32-.26Z"/>
          <path class="cls-1" d="M96.02,69.1v-.03c0-.07-.03-.1-.1-.1h-.07v.13s-.22,0-.22,0v-.25h.28c.14,0,.21,.07,.21,.22v.03h-.1Z"/>
          <path class="cls-1" d="M95.37,67.25c.29,0,.5,.16,.5,.4,0,.11-.04,.2-.12,.26h.47v.21h-1.3v-.19h.13c-.1-.07-.16-.17-.16-.3,0-.22,.18-.39,.47-.39Zm0,.21c-.19,0-.3,.09-.3,.23s.11,.24,.3,.24,.31-.1,.31-.24-.13-.23-.32-.23Z"/>
          <path class="cls-1" d="M95.85,66.46s-.07,.02-.11,.02c.08,.06,.13,.17,.13,.3,0,.19-.11,.32-.28,.32-.15,0-.25-.09-.28-.3l-.05-.29s0-.02,0-.03h-.08c-.08,0-.12,.06-.12,.18s.04,.17,.14,.19v.2c-.21-.02-.3-.15-.3-.39s.1-.38,.32-.38h.42c.08,0,.13,0,.21-.04v.21Zm-.35,.03h-.1l.05,.26c.02,.1,.07,.15,.14,.15,.08,0,.13-.06,.13-.16,0-.13-.09-.24-.21-.24Z"/>
          <path class="cls-1" d="M94.89,65.52h.2s0,.04,0,.06c0,.14,.09,.24,.28,.25h.48v.21h-.93v-.2h.17c-.12-.04-.2-.13-.2-.25,0-.02,0-.04,0-.06Z"/>
          <path class="cls-1" d="M95.85,64.79s-.07,.02-.11,.02c.08,.06,.13,.17,.13,.3,0,.19-.11,.32-.28,.32-.15,0-.25-.09-.28-.3l-.05-.29s0-.02,0-.03h-.08c-.08,0-.12,.06-.12,.18s.04,.17,.14,.19v.2c-.21-.02-.3-.15-.3-.39s.1-.38,.32-.38h.42c.08,0,.13,0,.21-.04v.21Zm-.35,.03h-.1l.05,.26c.02,.1,.07,.15,.14,.15,.08,0,.13-.06,.13-.16,0-.13-.09-.24-.21-.24Z"/>
          <path class="cls-1" d="M95.38,63.95c-.29,0-.49-.19-.49-.46s.2-.46,.49-.46,.49,.19,.49,.46-.2,.46-.49,.46Zm0-.72c-.19,0-.32,.1-.32,.26s.13,.25,.32,.25,.32-.1,.32-.25-.13-.26-.32-.26Z"/>
          <path class="cls-1" d="M94.85,62.56h.08v-.19s.15,0,.15,0v.19s.77,0,.77,0v.21h-.78v.14s-.15,0-.15,0v-.14s-.06,0-.06,0c-.19,0-.29-.09-.29-.29v-.12h.17v.08c0,.08,.03,.11,.11,.11Z"/>
          <path class="cls-1" d="M95.44,61.37v.69c.17,0,.27-.1,.27-.25,0-.11-.05-.18-.15-.22l.02-.2c.2,.06,.3,.21,.3,.42,0,.29-.21,.46-.5,.46s-.48-.17-.48-.45,.19-.45,.49-.45h.05Zm-.15,.68v-.47c-.15,.02-.24,.1-.24,.24s.08,.23,.24,.24Z"/>
          <path class="cls-1" d="M94.89,60.65h.2s0,.04,0,.06c0,.14,.09,.24,.28,.25h.48v.21h-.93v-.2h.17c-.12-.04-.2-.13-.2-.25,0-.02,0-.04,0-.06Z"/>
          <path class="cls-1" d="M95.44,59.65v.69c.17,0,.27-.1,.27-.25,0-.11-.05-.18-.15-.22l.02-.2c.2,.06,.3,.21,.3,.42,0,.29-.21,.46-.5,.46s-.48-.17-.48-.45,.19-.45,.49-.45h.05Zm-.15,.68v-.47c-.15,.02-.24,.1-.24,.24s.08,.23,.24,.24Z"/>
          <path class="cls-1" d="M95.39,59.5c-.31,0-.49-.17-.49-.44,0-.23,.12-.38,.34-.41v.2c-.11,.03-.17,.1-.17,.21,0,.16,.12,.24,.32,.24s.32-.09,.32-.24c0-.11-.07-.18-.18-.21v-.2c.22,.04,.35,.18,.35,.42,0,.27-.18,.44-.49,.44Z"/>
          <path class="cls-1" d="M95.44,57.61v.69c.17,0,.27-.1,.27-.25,0-.11-.05-.18-.15-.22l.02-.2c.2,.06,.3,.21,.3,.42,0,.29-.21,.46-.5,.46s-.48-.17-.48-.45,.19-.45,.49-.45h.05Zm-.15,.68v-.47c-.15,.02-.24,.1-.24,.24s.08,.23,.24,.24Z"/>
          <path class="cls-1" d="M94.89,56.9h.2s0,.04,0,.06c0,.14,.09,.24,.28,.25h.48v.21h-.93v-.2h.17c-.12-.04-.2-.13-.2-.25,0-.02,0-.04,0-.06Z"/>
          <path class="cls-1" d="M95.85,55.68s-.07,.02-.11,.02c.08,.06,.13,.17,.13,.3,0,.19-.11,.32-.28,.32-.15,0-.25-.09-.28-.3l-.05-.29s0-.02,0-.03h-.08c-.08,0-.12,.06-.12,.18s.04,.17,.14,.19v.2c-.21-.02-.3-.15-.3-.39s.1-.38,.32-.38h.42c.08,0,.13,0,.21-.04v.21Zm-.35,.03h-.1l.05,.26c.02,.1,.07,.15,.14,.15,.08,0,.13-.06,.13-.16,0-.13-.09-.24-.21-.24Z"/>
          <path class="cls-1" d="M95.22,53.48h.63v.21h-.6c-.09,0-.16,.05-.16,.14,0,.1,.08,.2,.26,.2h.5v.21h-.6c-.09,0-.16,.05-.16,.14,0,.1,.08,.19,.27,.19h.5v.21h-.93v-.2h.13c-.1-.06-.15-.15-.15-.27,0-.13,.06-.22,.17-.26-.11-.06-.17-.16-.17-.28,0-.19,.12-.29,.32-.29Z"/>
          <path class="cls-1" d="M95.44,52.39v.69c.17,0,.27-.1,.27-.25,0-.11-.05-.18-.15-.22l.02-.2c.2,.06,.3,.21,.3,.42,0,.29-.21,.46-.5,.46s-.48-.17-.48-.45,.19-.45,.49-.45h.05Zm-.15,.68v-.47c-.15,.02-.24,.1-.24,.24s.08,.23,.24,.24Z"/>
          <path class="cls-1" d="M94.56,52.19v-.21h1.28v.21h-1.28Z"/>
          <path class="cls-1" d="M95.21,50.92h.63v.21h-.59c-.11,0-.18,.05-.18,.16,0,.12,.08,.22,.26,.22h.51v.21h-1.28v-.21h.47c-.09-.06-.14-.16-.14-.28,0-.19,.12-.31,.32-.31Z"/>
          <path class="cls-1" d="M95.38,50.72c-.29,0-.49-.19-.49-.46s.2-.46,.49-.46,.49,.19,.49,.46-.2,.46-.49,.46Zm0-.72c-.19,0-.32,.1-.32,.26s.13,.25,.32,.25,.32-.1,.32-.25-.13-.26-.32-.26Z"/>
          <path class="cls-1" d="M94.89,49.09h.2s0,.04,0,.06c0,.14,.09,.24,.28,.25h.48v.21h-.93v-.2h.17c-.12-.04-.2-.13-.2-.25,0-.02,0-.04,0-.06Z"/>
          <path class="cls-1" d="M95.56,48.52v-.2c.1-.01,.16-.08,.16-.22,0-.12-.05-.19-.12-.19-.06,0-.1,.04-.11,.13l-.04,.19c-.04,.18-.13,.26-.26,.26-.17,0-.29-.13-.29-.36s.1-.37,.3-.39v.2c-.09,.02-.14,.08-.14,.2,0,.1,.04,.16,.11,.16,.05,0,.09-.04,.11-.12l.04-.19c.04-.19,.13-.27,.26-.27,.19,0,.3,.15,.3,.4s-.11,.38-.31,.41Z"/>
          <path class="cls-1" d="M95.38,47.57c-.29,0-.49-.19-.49-.46s.2-.46,.49-.46,.49,.19,.49,.46-.2,.46-.49,.46Zm0-.72c-.19,0-.32,.1-.32,.26s.13,.25,.32,.25,.32-.1,.32-.25-.13-.26-.32-.26Z"/>
          <path class="cls-1" d="M94.56,46.45v-.21h1.28v.21h-1.28Z"/>
          <path class="cls-1" d="M94.92,45.19h.93v.2h-.13c.1,.07,.15,.17,.15,.29,0,.19-.12,.31-.32,.31h-.63v-.21h.59c.11,0,.18-.05,.18-.16,0-.12-.08-.22-.26-.22h-.51v-.21Z"/>
          <path class="cls-1" d="M95.52,44.33v-.2c.21,.03,.33,.16,.35,.37l.09,.06v-.03c0-.11,.06-.18,.16-.18,.12,0,.18,.1,.18,.25v.07h-.11v-.05c0-.08-.03-.1-.06-.1-.03,0-.05,.02-.05,.06v.06l-.09,.06-.13-.08c-.03,.23-.2,.37-.48,.37-.31,0-.49-.17-.49-.44,0-.23,.12-.38,.34-.41v.2c-.11,.03-.17,.1-.17,.21,0,.16,.12,.24,.32,.24s.32-.09,.32-.24c0-.11-.07-.18-.18-.21Z"/>
          <path class="cls-1" d="M95.85,43.35s-.07,.02-.11,.02c.08,.06,.13,.17,.13,.3,0,.19-.11,.32-.28,.32-.15,0-.25-.09-.28-.3l-.05-.29s0-.02,0-.03h-.08c-.08,0-.12,.06-.12,.18s.04,.17,.14,.19v.2c-.21-.02-.3-.15-.3-.39s.1-.38,.32-.38h.42c.08,0,.13,0,.21-.04v.21Zm-1.06,.41v.16c-.21,0-.3-.09-.3-.22,0-.15,.12-.18,.12-.27,0-.05-.04-.08-.12-.08v-.16c.22,0,.3,.09,.3,.22,0,.15-.12,.18-.12,.27,0,.05,.04,.08,.12,.08Zm.72-.38h-.1l.05,.26c.02,.1,.07,.15,.14,.15,.08,0,.13-.06,.13-.16,0-.13-.09-.24-.21-.24Z"/>
          <path class="cls-1" d="M95.38,42.98c-.29,0-.49-.19-.49-.46s.2-.46,.49-.46,.49,.19,.49,.46-.2,.46-.49,.46Zm0-.72c-.19,0-.32,.1-.32,.26s.13,.25,.32,.25,.32-.1,.32-.25-.13-.26-.32-.26Z"/>
          <path class="cls-1" d="M95.85,40.8s-.07,.02-.11,.02c.08,.06,.13,.17,.13,.3,0,.19-.11,.32-.28,.32-.15,0-.25-.09-.28-.3l-.05-.29s0-.02,0-.03h-.08c-.08,0-.12,.06-.12,.18s.04,.17,.14,.19v.2c-.21-.02-.3-.15-.3-.39s.1-.38,.32-.38h.42c.08,0,.13,0,.21-.04v.21Zm-.35,.03h-.1l.05,.26c.02,.1,.07,.15,.14,.15,.08,0,.13-.06,.13-.16,0-.13-.09-.24-.21-.24Z"/>
          <path class="cls-1" d="M94.92,39.58h.93v.2h-.13c.1,.07,.15,.17,.15,.29,0,.19-.12,.31-.32,.31h-.63v-.21h.59c.11,0,.18-.05,.18-.16,0-.12-.08-.22-.26-.22h-.51v-.21Z"/>
          <path class="cls-1" d="M94.56,38.5h1.28v.19h-.13c.1,.06,.16,.16,.16,.29,0,.24-.21,.4-.5,.4s-.48-.17-.48-.39c0-.12,.05-.21,.12-.28h-.46v-.21Zm.81,.2c-.19,0-.3,.1-.3,.24s.11,.23,.3,.23,.32-.09,.32-.23-.12-.24-.31-.24Z"/>
          <path class="cls-1" d="M94.56,38.25v-.21h.21v.21h-.21Zm.35,0v-.21h.93v.21h-.93Z"/>
          <path class="cls-1" d="M95.38,37.84c-.29,0-.49-.19-.49-.46s.2-.46,.49-.46,.49,.19,.49,.46-.2,.46-.49,.46Zm0-.72c-.19,0-.32,.1-.32,.26s.13,.25,.32,.25,.32-.1,.32-.25-.13-.26-.32-.26Z"/>
          <path class="cls-1" d="M94.92,35.97l.93,.32v.21l-.93,.33v-.22l.41-.13,.34-.09-.34-.08-.41-.13v-.21Z"/>
          <path class="cls-1" d="M94.56,35.81v-.21h.21v.21h-.21Zm.35,0v-.21h.93v.21h-.93Z"/>
          <path class="cls-1" d="M95.56,35.4v-.2c.1-.01,.16-.08,.16-.22,0-.12-.05-.19-.12-.19-.06,0-.1,.04-.11,.13l-.04,.19c-.04,.18-.13,.26-.26,.26-.17,0-.29-.13-.29-.36s.1-.37,.3-.39v.2c-.09,.02-.14,.08-.14,.2,0,.1,.04,.16,.11,.16,.05,0,.09-.04,.11-.12l.04-.19c.04-.19,.13-.27,.26-.27,.19,0,.3,.15,.3,.4s-.11,.38-.31,.41Z"/>
          <path class="cls-1" d="M94.92,33.6h.93v.2h-.13c.1,.07,.15,.17,.15,.29,0,.19-.12,.31-.32,.31h-.63v-.21h.59c.11,0,.18-.05,.18-.16,0-.12-.08-.22-.26-.22h-.51v-.21Z"/>
          <path class="cls-1" d="M95.85,32.76s-.07,.02-.11,.02c.08,.06,.13,.17,.13,.3,0,.19-.11,.32-.28,.32-.15,0-.25-.09-.28-.3l-.05-.29s0-.02,0-.03h-.08c-.08,0-.12,.06-.12,.18s.04,.17,.14,.19v.2c-.21-.02-.3-.15-.3-.39s.1-.38,.32-.38h.42c.08,0,.13,0,.21-.04v.21Zm-.35,.03h-.1l.05,.26c.02,.1,.07,.15,.14,.15,.08,0,.13-.06,.13-.16,0-.13-.09-.24-.21-.24Z"/>
          <path class="cls-1" d="M94.56,32.34v-.21h1.28v.21h-1.28Z"/>
          <path class="cls-1" d="M95.37,30.53c.29,0,.5,.16,.5,.4,0,.11-.04,.2-.12,.26h.47v.21h-1.3v-.19h.13c-.1-.07-.16-.17-.16-.3,0-.22,.18-.39,.47-.39Zm0,.21c-.19,0-.3,.09-.3,.23s.11,.24,.3,.24,.31-.1,.31-.24-.13-.23-.32-.23Z"/>
          <path class="cls-1" d="M95.85,29.74s-.07,.02-.11,.02c.08,.06,.13,.17,.13,.3,0,.19-.11,.32-.28,.32-.15,0-.25-.09-.28-.3l-.05-.29s0-.02,0-.03h-.08c-.08,0-.12,.06-.12,.18s.04,.17,.14,.19v.2c-.21-.02-.3-.15-.3-.39s.1-.38,.32-.38h.42c.08,0,.13,0,.21-.04v.21Zm-.35,.03h-.1l.05,.26c.02,.1,.07,.15,.14,.15,.08,0,.13-.06,.13-.16,0-.13-.09-.24-.21-.24Z"/>
          <path class="cls-1" d="M94.89,28.8h.2s0,.04,0,.06c0,.14,.09,.24,.28,.25h.48v.21h-.93v-.2h.17c-.12-.04-.2-.13-.2-.25,0-.02,0-.04,0-.06Z"/>
          <path class="cls-1" d="M95.85,28.07s-.07,.02-.11,.02c.08,.06,.13,.17,.13,.3,0,.19-.11,.32-.28,.32-.15,0-.25-.09-.28-.3l-.05-.29s0-.02,0-.03h-.08c-.08,0-.12,.06-.12,.18s.04,.17,.14,.19v.2c-.21-.02-.3-.15-.3-.39s.1-.38,.32-.38h.42c.08,0,.13,0,.21-.04v.21Zm-.35,.03h-.1l.05,.26c.02,.1,.07,.15,.14,.15,.08,0,.13-.06,.13-.16,0-.13-.09-.24-.21-.24Z"/>
          <path class="cls-1" d="M95.39,27.23c-.31,0-.49-.17-.49-.44,0-.23,.12-.38,.34-.41v.2c-.11,.03-.17,.1-.17,.21,0,.16,.12,.24,.32,.24s.32-.09,.32-.24c0-.11-.07-.18-.18-.21v-.2c.22,.04,.35,.18,.35,.42,0,.27-.18,.44-.49,.44Z"/>
          <path class="cls-1" d="M95.85,25.6s-.07,.02-.11,.02c.08,.06,.13,.17,.13,.3,0,.19-.11,.32-.28,.32-.15,0-.25-.09-.28-.3l-.05-.29s0-.02,0-.03h-.08c-.08,0-.12,.06-.12,.18s.04,.17,.14,.19v.2c-.21-.02-.3-.15-.3-.39s.1-.38,.32-.38h.42c.08,0,.13,0,.21-.04v.21Zm-.35,.03h-.1l.05,.26c.02,.1,.07,.15,.14,.15,.08,0,.13-.06,.13-.16,0-.13-.09-.24-.21-.24Z"/>
          <path class="cls-1" d="M94.56,24.35h1.28v.19h-.13c.1,.06,.16,.16,.16,.29,0,.24-.21,.4-.5,.4s-.48-.17-.48-.39c0-.12,.05-.21,.12-.28h-.46v-.21Zm.81,.2c-.19,0-.3,.1-.3,.24s.11,.23,.3,.23,.32-.09,.32-.23-.12-.24-.31-.24Z"/>
          <path class="cls-1" d="M95.85,23.51s-.07,.02-.11,.02c.08,.06,.13,.17,.13,.3,0,.19-.11,.32-.28,.32-.15,0-.25-.09-.28-.3l-.05-.29s0-.02,0-.03h-.08c-.08,0-.12,.06-.12,.18s.04,.17,.14,.19v.2c-.21-.02-.3-.15-.3-.39s.1-.38,.32-.38h.42c.08,0,.13,0,.21-.04v.21Zm-.35,.03h-.1l.05,.26c.02,.1,.07,.15,.14,.15,.08,0,.13-.06,.13-.16,0-.13-.09-.24-.21-.24Z"/>
          <path class="cls-1" d="M97.38,91.31h.63v.21h-.6c-.09,0-.16,.05-.16,.14,0,.1,.08,.2,.26,.2h.5v.21h-.6c-.09,0-.16,.05-.16,.14,0,.1,.08,.19,.27,.19h.5v.21h-.93v-.2h.13c-.1-.06-.15-.15-.15-.27,0-.13,.06-.22,.17-.26-.11-.06-.17-.16-.17-.28,0-.19,.12-.29,.32-.29Z"/>
          <path class="cls-1" d="M97.54,91.12c-.29,0-.49-.19-.49-.46s.2-.46,.49-.46,.49,.19,.49,.46-.2,.46-.49,.46Zm0-.72c-.19,0-.32,.1-.32,.26s.13,.25,.32,.25,.32-.1,.32-.25-.13-.26-.32-.26Z"/>
          <path class="cls-1" d="M97.38,88.69h.63v.21h-.6c-.09,0-.16,.05-.16,.14,0,.1,.08,.2,.26,.2h.5v.21h-.6c-.09,0-.16,.05-.16,.14,0,.1,.08,.19,.27,.19h.5v.21h-.93v-.2h.13c-.1-.06-.15-.15-.15-.27,0-.13,.06-.22,.17-.26-.11-.06-.17-.16-.17-.28,0-.19,.12-.29,.32-.29Z"/>
          <path class="cls-1" d="M97.6,87.59v.69c.17,0,.27-.1,.27-.25,0-.11-.05-.18-.15-.22l.02-.2c.2,.06,.3,.21,.3,.42,0,.29-.21,.46-.5,.46s-.48-.17-.48-.45,.19-.45,.49-.45h.05Zm-.15,.68v-.47c-.15,.02-.24,.1-.24,.24s.08,.23,.24,.24Z"/>
          <path class="cls-1" d="M97.37,86.59h.63v.21h-.59c-.11,0-.18,.05-.18,.16,0,.12,.08,.22,.26,.22h.51v.21h-.93v-.2h.13c-.1-.07-.15-.17-.15-.29,0-.19,.12-.31,.32-.31Z"/>
          <path class="cls-1" d="M97.74,86.07c.07,0,.09-.02,.09-.09v-.1h.17v.17c0,.17-.07,.23-.23,.23h-.54v.13s-.15,0-.15,0v-.13s-.29,0-.29,0v-.21h.29v-.19s.15,0,.15,0v.19s.51,0,.51,0Z"/>
          <path class="cls-1" d="M97.54,85.76c-.29,0-.49-.19-.49-.46s.2-.46,.49-.46,.49,.19,.49,.46-.2,.46-.49,.46Zm0-.72c-.19,0-.32,.1-.32,.26s.13,.25,.32,.25,.32-.1,.32-.25-.13-.26-.32-.26Z"/>
          <path class="cls-1" d="M98.18,84.63v-.03c0-.07-.03-.1-.1-.1h-.07v.13s-.22,0-.22,0v-.25h.28c.14,0,.21,.07,.21,.22v.03h-.1Z"/>
          <path class="cls-1" d="M96.72,82.82h1.28v.19h-.13c.1,.06,.16,.16,.16,.29,0,.24-.21,.4-.5,.4s-.48-.17-.48-.39c0-.12,.05-.21,.12-.28h-.46v-.21Zm.81,.2c-.19,0-.3,.1-.3,.24s.11,.23,.3,.23,.32-.09,.32-.23-.12-.24-.31-.24Z"/>
          <path class="cls-1" d="M97.6,81.72v.69c.17,0,.27-.1,.27-.25,0-.11-.05-.18-.15-.22l.02-.2c.2,.06,.3,.21,.3,.42,0,.29-.21,.46-.5,.46s-.48-.17-.48-.45,.19-.45,.49-.45h.05Zm-.15,.68v-.47c-.15,.02-.24,.1-.24,.24s.08,.23,.24,.24Z"/>
          <path class="cls-1" d="M97.01,80.78h.08v-.19s.15,0,.15,0v.19s.77,0,.77,0v.21h-.78v.14s-.15,0-.15,0v-.14s-.06,0-.06,0c-.19,0-.29-.09-.29-.29v-.12h.17v.08c0,.08,.03,.11,.11,.11Z"/>
          <path class="cls-1" d="M97.54,80.49c-.29,0-.49-.19-.49-.46s.2-.46,.49-.46,.49,.19,.49,.46-.2,.46-.49,.46Zm0-.72c-.19,0-.32,.1-.32,.26s.13,.25,.32,.25,.32-.1,.32-.25-.13-.26-.32-.26Z"/>
          <path class="cls-1" d="M97.05,78.86h.2s0,.04,0,.06c0,.14,.09,.24,.28,.25h.48v.21h-.93v-.2h.17c-.12-.04-.2-.13-.2-.25,0-.02,0-.04,0-.06Z"/>
          <path class="cls-1" d="M97.38,77.39h.63v.21h-.6c-.09,0-.16,.05-.16,.14,0,.1,.08,.2,.26,.2h.5v.21h-.6c-.09,0-.16,.05-.16,.14,0,.1,.08,.19,.27,.19h.5v.21h-.93v-.2h.13c-.1-.06-.15-.15-.15-.27,0-.13,.06-.22,.17-.26-.11-.06-.17-.16-.17-.28,0-.19,.12-.29,.32-.29Z"/>
          <path class="cls-1" d="M98.01,76.56s-.07,.02-.11,.02c.08,.06,.13,.17,.13,.3,0,.19-.11,.32-.28,.32-.15,0-.25-.09-.28-.3l-.05-.29s0-.02,0-.03h-.08c-.08,0-.12,.06-.12,.18s.04,.17,.14,.19v.2c-.21-.02-.3-.15-.3-.39s.1-.38,.32-.38h.42c.08,0,.13,0,.21-.04v.21Zm-.35,.03h-.1l.05,.26c.02,.1,.07,.15,.14,.15,.08,0,.13-.06,.13-.16,0-.13-.09-.24-.21-.24Z"/>
          <path class="cls-1" d="M98.01,75.08s-.07,.02-.11,.02c.08,.06,.13,.17,.13,.3,0,.19-.11,.32-.28,.32-.15,0-.25-.09-.28-.3l-.05-.29s0-.02,0-.03h-.08c-.08,0-.12,.06-.12,.18s.04,.17,.14,.19v.2c-.21-.02-.3-.15-.3-.39s.1-.38,.32-.38h.42c.08,0,.13,0,.21-.04v.21Zm-.35,.03h-.1l.05,.26c.02,.1,.07,.15,.14,.15,.08,0,.13-.06,.13-.16,0-.13-.09-.24-.21-.24Zm-.69,.14v.16l-.27-.12v-.27l.27,.23Z"/>
          <path class="cls-1" d="M97.08,73.82h.92c.27,0,.4,.17,.4,.44,0,.24-.1,.39-.29,.41v-.2c.1-.02,.13-.09,.13-.21,0-.17-.07-.23-.23-.23h-.12c.08,.06,.13,.16,.13,.27,0,.24-.2,.4-.49,.4s-.47-.17-.47-.4c0-.13,.05-.23,.15-.29h-.13v-.19Zm.45,.21c-.19,0-.3,.1-.3,.24s.11,.23,.3,.23,.31-.09,.31-.23-.12-.24-.31-.24Z"/>
          <path class="cls-1" d="M96.72,73.57v-.21h.21v.21h-.21Zm.35,0v-.21h.93v.21h-.93Z"/>
          <path class="cls-1" d="M96.72,73.11v-.21h1.28v.21h-1.28Z"/>
          <path class="cls-1" d="M98.18,72.63v-.03c0-.07-.03-.1-.1-.1h-.07v.13s-.22,0-.22,0v-.25h.28c.14,0,.21,.07,.21,.22v.03h-.1Z"/>
          <path class="cls-1" d="M96.72,70.83h1.28v.19h-.13c.1,.06,.16,.16,.16,.29,0,.24-.21,.4-.5,.4s-.48-.17-.48-.39c0-.12,.05-.21,.12-.28h-.46v-.21Zm.81,.2c-.19,0-.3,.1-.3,.24s.11,.23,.3,.23,.32-.09,.32-.23-.12-.24-.31-.24Z"/>
          <path class="cls-1" d="M96.72,70.58v-.21h.21v.21h-.21Zm.35,0v-.21h.93v.21h-.93Z"/>
          <path class="cls-1" d="M97.37,69.31h.63v.21h-.59c-.11,0-.18,.05-.18,.16,0,.12,.08,.22,.26,.22h.51v.21h-.93v-.2h.13c-.1-.07-.15-.17-.15-.29,0-.19,.12-.31,.32-.31Z"/>
          <path class="cls-1" d="M98.01,68.47s-.07,.02-.11,.02c.08,.06,.13,.17,.13,.3,0,.19-.11,.32-.28,.32-.15,0-.25-.09-.28-.3l-.05-.29s0-.02,0-.03h-.08c-.08,0-.12,.06-.12,.18s.04,.17,.14,.19v.2c-.21-.02-.3-.15-.3-.39s.1-.38,.32-.38h.42c.08,0,.13,0,.21-.04v.21Zm-1.05,.32v.2l-.27-.21v-.21l.27-.21v.2l-.16,.12,.16,.12Zm.7-.29h-.1l.05,.26c.02,.1,.07,.15,.14,.15,.08,0,.13-.06,.13-.16,0-.13-.09-.24-.21-.24Z"/>
          <path class="cls-1" d="M97.38,66.74h.63v.21h-.6c-.09,0-.16,.05-.16,.14,0,.1,.08,.2,.26,.2h.5v.21h-.6c-.09,0-.16,.05-.16,.14,0,.1,.08,.19,.27,.19h.5v.21h-.93v-.2h.13c-.1-.06-.15-.15-.15-.27,0-.13,.06-.22,.17-.26-.11-.06-.17-.16-.17-.28,0-.19,.12-.29,.32-.29Z"/>
          <path class="cls-1" d="M96.72,66.49v-.21h.21v.21h-.21Zm.35,0v-.21h.93v.21h-.93Z"/>
          <path class="cls-1" d="M97.55,66.08c-.31,0-.49-.17-.49-.44,0-.23,.12-.38,.34-.41v.2c-.11,.03-.17,.1-.17,.21,0,.16,.12,.24,.32,.24s.32-.09,.32-.24c0-.11-.07-.18-.18-.21v-.2c.22,.04,.35,.18,.35,.42,0,.27-.18,.44-.49,.44Z"/>
          <path class="cls-1" d="M98.01,64.45s-.07,.02-.11,.02c.08,.06,.13,.17,.13,.3,0,.19-.11,.32-.28,.32-.15,0-.25-.09-.28-.3l-.05-.29s0-.02,0-.03h-.08c-.08,0-.12,.06-.12,.18s.04,.17,.14,.19v.2c-.21-.02-.3-.15-.3-.39s.1-.38,.32-.38h.42c.08,0,.13,0,.21-.04v.21Zm-.35,.03h-.1l.05,.26c.02,.1,.07,.15,.14,.15,.08,0,.13-.06,.13-.16,0-.13-.09-.24-.21-.24Z"/>
          <path class="cls-1" d="M98.18,64.01v-.03c0-.07-.03-.1-.1-.1h-.07v.13s-.22,0-.22,0v-.25h.28c.14,0,.21,.07,.21,.22v.03h-.1Z"/>
          <path class="cls-1" d="M97.55,63.08c-.31,0-.49-.17-.49-.44,0-.23,.12-.38,.34-.41v.2c-.11,.03-.17,.1-.17,.21,0,.16,.12,.24,.32,.24s.32-.09,.32-.24c0-.11-.07-.18-.18-.21v-.2c.22,.04,.35,.18,.35,.42,0,.27-.18,.44-.49,.44Z"/>
          <path class="cls-1" d="M97.54,62.09c-.29,0-.49-.19-.49-.46s.2-.46,.49-.46,.49,.19,.49,.46-.2,.46-.49,.46Zm0-.72c-.19,0-.32,.1-.32,.26s.13,.25,.32,.25,.32-.1,.32-.25-.13-.26-.32-.26Z"/>
          <path class="cls-1" d="M96.72,60.97v-.21h1.28v.21h-1.28Z"/>
          <path class="cls-1" d="M98.01,59.92s-.07,.02-.11,.02c.08,.06,.13,.17,.13,.3,0,.19-.11,.32-.28,.32-.15,0-.25-.09-.28-.3l-.05-.29s0-.02,0-.03h-.08c-.08,0-.12,.06-.12,.18s.04,.17,.14,.19v.2c-.21-.02-.3-.15-.3-.39s.1-.38,.32-.38h.42c.08,0,.13,0,.21-.04v.21Zm-.35,.03h-.1l.05,.26c.02,.1,.07,.15,.14,.15,.08,0,.13-.06,.13-.16,0-.13-.09-.24-.21-.24Z"/>
          <path class="cls-1" d="M97.53,58.62c.29,0,.5,.16,.5,.4,0,.12-.06,.22-.15,.28h.13v.19h-1.28v-.21h.46c-.08-.06-.12-.16-.12-.28,0-.22,.18-.39,.47-.39Zm0,.21c-.19,0-.3,.09-.3,.23s.11,.24,.3,.24,.31-.1,.31-.24-.13-.23-.32-.23Z"/>
          <path class="cls-1" d="M97.54,58.47c-.29,0-.49-.19-.49-.46s.2-.46,.49-.46,.49,.19,.49,.46-.2,.46-.49,.46Zm0-.72c-.19,0-.32,.1-.32,.26s.13,.25,.32,.25,.32-.1,.32-.25-.13-.26-.32-.26Z"/>
          <path class="cls-1" d="M97.05,56.84h.2s0,.04,0,.06c0,.14,.09,.24,.28,.25h.48v.21h-.93v-.2h.17c-.12-.04-.2-.13-.2-.25,0-.02,0-.04,0-.06Z"/>
          <path class="cls-1" d="M98.01,56.11s-.07,.02-.11,.02c.08,.06,.13,.17,.13,.3,0,.19-.11,.32-.28,.32-.15,0-.25-.09-.28-.3l-.05-.29s0-.02,0-.03h-.08c-.08,0-.12,.06-.12,.18s.04,.17,.14,.19v.2c-.21-.02-.3-.15-.3-.39s.1-.38,.32-.38h.42c.08,0,.13,0,.21-.04v.21Zm-.35,.03h-.1l.05,.26c.02,.1,.07,.15,.14,.15,.08,0,.13-.06,.13-.16,0-.13-.09-.24-.21-.24Z"/>
          <path class="cls-1" d="M97.74,55.42c.07,0,.09-.02,.09-.09v-.1h.17v.17c0,.17-.07,.23-.23,.23h-.54v.13s-.15,0-.15,0v-.13s-.29,0-.29,0v-.21h.29v-.19s.15,0,.15,0v.19s.51,0,.51,0Z"/>
          <path class="cls-1" d="M96.72,55.05v-.21h.21v.21h-.21Zm.35,0v-.21h.93v.21h-.93Z"/>
          <path class="cls-1" d="M97.08,53.81l.93,.32v.21l-.93,.33v-.22l.41-.13,.34-.09-.34-.08-.41-.13v-.21Z"/>
          <path class="cls-1" d="M98.01,53.09s-.07,.02-.11,.02c.08,.06,.13,.17,.13,.3,0,.19-.11,.32-.28,.32-.15,0-.25-.09-.28-.3l-.05-.29s0-.02,0-.03h-.08c-.08,0-.12,.06-.12,.18s.04,.17,.14,.19v.2c-.21-.02-.3-.15-.3-.39s.1-.38,.32-.38h.42c.08,0,.13,0,.21-.04v.21Zm-.35,.03h-.1l.05,.26c.02,.1,.07,.15,.14,.15,.08,0,.13-.06,.13-.16,0-.13-.09-.24-.21-.24Z"/>
          <path class="cls-1" d="M97.6,51.35v.69c.17,0,.27-.1,.27-.25,0-.11-.05-.18-.15-.22l.02-.2c.2,.06,.3,.21,.3,.42,0,.29-.21,.46-.5,.46s-.48-.17-.48-.45,.19-.45,.49-.45h.05Zm-.15,.68v-.47c-.15,.02-.24,.1-.24,.24s.08,.23,.24,.24Z"/>
          <path class="cls-1" d="M97.55,50.73c-.31,0-.49-.17-.49-.44,0-.23,.12-.38,.34-.41v.2c-.11,.03-.17,.1-.17,.21,0,.16,.12,.24,.32,.24s.32-.09,.32-.24c0-.11-.07-.18-.18-.21v-.2c.22,.04,.35,.18,.35,.42,0,.27-.18,.44-.49,.44Z"/>
          <path class="cls-1" d="M97.54,49.74c-.29,0-.49-.19-.49-.46s.2-.46,.49-.46,.49,.19,.49,.46-.2,.46-.49,.46Zm0-.72c-.19,0-.32,.1-.32,.26s.13,.25,.32,.25,.32-.1,.32-.25-.13-.26-.32-.26Z"/>
          <path class="cls-1" d="M97.38,47.31h.63v.21h-.6c-.09,0-.16,.05-.16,.14,0,.1,.08,.2,.26,.2h.5v.21h-.6c-.09,0-.16,.05-.16,.14,0,.1,.08,.19,.27,.19h.5v.21h-.93v-.2h.13c-.1-.06-.15-.15-.15-.27,0-.13,.06-.22,.17-.26-.11-.06-.17-.16-.17-.28,0-.19,.12-.29,.32-.29Z"/>
          <path class="cls-1" d="M97.54,46.64c-.29,0-.49-.19-.49-.46s.2-.46,.49-.46,.49,.19,.49,.46-.2,.46-.49,.46Zm0-.72c-.19,0-.32,.1-.32,.26s.13,.25,.32,.25,.32-.1,.32-.25-.13-.26-.32-.26Z"/>
          <path class="cls-1" d="M97.38,43.75h.63v.21h-.6c-.09,0-.16,.05-.16,.14,0,.1,.08,.2,.26,.2h.5v.21h-.6c-.09,0-.16,.05-.16,.14,0,.1,.08,.19,.27,.19h.5v.21h-.93v-.2h.13c-.1-.06-.15-.15-.15-.27,0-.13,.06-.22,.17-.26-.11-.06-.17-.16-.17-.28,0-.19,.12-.29,.32-.29Z"/>
          <path class="cls-1" d="M97.6,42.65v.69c.17,0,.27-.1,.27-.25,0-.11-.05-.18-.15-.22l.02-.2c.2,.06,.3,.21,.3,.42,0,.29-.21,.46-.5,.46s-.48-.17-.48-.45,.19-.45,.49-.45h.05Zm-.15,.68v-.47c-.15,.02-.24,.1-.24,.24s.08,.23,.24,.24Z"/>
          <path class="cls-1" d="M96.72,42.45v-.21h1.28v.21h-1.28Z"/>
          <path class="cls-1" d="M97.37,41.19h.63v.21h-.59c-.11,0-.18,.05-.18,.16,0,.12,.08,.22,.26,.22h.51v.21h-1.28v-.21h.47c-.09-.06-.14-.16-.14-.28,0-.19,.12-.31,.32-.31Z"/>
          <path class="cls-1" d="M97.54,40.99c-.29,0-.49-.19-.49-.46s.2-.46,.49-.46,.49,.19,.49,.46-.2,.46-.49,.46Zm0-.72c-.19,0-.32,.1-.32,.26s.13,.25,.32,.25,.32-.1,.32-.25-.13-.26-.32-.26Z"/>
          <path class="cls-1" d="M97.05,39.35h.2s0,.04,0,.06c0,.14,.09,.24,.28,.25h.48v.21h-.93v-.2h.17c-.12-.04-.2-.13-.2-.25,0-.02,0-.04,0-.06Z"/>
          <path class="cls-1" d="M97.37,38.76c-.4,0-.67-.24-.67-.59,0-.29,.17-.5,.43-.53v.21c-.15,.03-.24,.15-.24,.31,0,.24,.19,.38,.48,.38s.49-.14,.49-.38c0-.19-.11-.3-.29-.32v-.21c.3,.03,.48,.24,.48,.54,0,.35-.27,.59-.68,.59Z"/>
          <path class="cls-1" d="M98.01,36.39l-.34,.21,.34,.23v.24l-.49-.36-.44,.32v-.25l.29-.18-.29-.19v-.24l.44,.32,.49-.35v.25Z"/>
          <path class="cls-1" d="M97.63,34.48c.22,0,.37,.15,.37,.42v.59h-1.28v-.59c0-.23,.12-.38,.31-.38,.13,0,.23,.07,.28,.2,.05-.17,.16-.25,.32-.25Zm-.73,.8h.34v-.32c0-.14-.07-.21-.17-.21s-.16,.06-.16,.2v.34Zm.71-.58c-.13,0-.2,.08-.2,.23v.35h.4v-.35c0-.16-.08-.23-.2-.23Z"/>
          <path class="cls-1" d="M96.72,32.95h1.28v.19h-.13c.1,.06,.16,.16,.16,.29,0,.24-.21,.4-.5,.4s-.48-.17-.48-.39c0-.12,.05-.21,.12-.28h-.46v-.21Zm.81,.2c-.19,0-.3,.1-.3,.24s.11,.23,.3,.23,.32-.09,.32-.23-.12-.24-.31-.24Z"/>
          <path class="cls-1" d="M97.54,32.75c-.29,0-.49-.19-.49-.46s.2-.46,.49-.46,.49,.19,.49,.46-.2,.46-.49,.46Zm0-.72c-.19,0-.32,.1-.32,.26s.13,.25,.32,.25,.32-.1,.32-.25-.13-.26-.32-.26Z"/>
          <path class="cls-1" d="M97.38,29.86h.63v.21h-.6c-.09,0-.16,.05-.16,.14,0,.1,.08,.2,.26,.2h.5v.21h-.6c-.09,0-.16,.05-.16,.14,0,.1,.08,.19,.27,.19h.5v.21h-.93v-.2h.13c-.1-.06-.15-.15-.15-.27,0-.13,.06-.22,.17-.26-.11-.06-.17-.16-.17-.28,0-.19,.12-.29,.32-.29Z"/>
          <path class="cls-1" d="M97.6,28.76v.69c.17,0,.27-.1,.27-.25,0-.11-.05-.18-.15-.22l.02-.2c.2,.06,.3,.21,.3,.42,0,.29-.21,.46-.5,.46s-.48-.17-.48-.45,.19-.45,.49-.45h.05Zm-.15,.68v-.47c-.15,.02-.24,.1-.24,.24s.08,.23,.24,.24Z"/>
          <path class="cls-1" d="M97.05,28.05h.2s0,.04,0,.06c0,.14,.09,.24,.28,.25h.48v.21h-.93v-.2h.17c-.12-.04-.2-.13-.2-.25,0-.02,0-.04,0-.06Z"/>
          <path class="cls-1" d="M97.55,27.94c-.31,0-.49-.17-.49-.44,0-.23,.12-.38,.34-.41v.2c-.11,.03-.17,.1-.17,.21,0,.16,.12,.24,.32,.24s.32-.09,.32-.24c0-.11-.07-.18-.18-.21v-.2c.22,.04,.35,.18,.35,.42,0,.27-.18,.44-.49,.44Z"/>
          <path class="cls-1" d="M98.01,26.31s-.07,.02-.11,.02c.08,.06,.13,.17,.13,.3,0,.19-.11,.32-.28,.32-.15,0-.25-.09-.28-.3l-.05-.29s0-.02,0-.03h-.08c-.08,0-.12,.06-.12,.18s.04,.17,.14,.19v.2c-.21-.02-.3-.15-.3-.39s.1-.38,.32-.38h.42c.08,0,.13,0,.21-.04v.21Zm-.35,.03h-.1l.05,.26c.02,.1,.07,.15,.14,.15,.08,0,.13-.06,.13-.16,0-.13-.09-.24-.21-.24Z"/>
          <path class="cls-1" d="M96.72,25.06h1.28v.19h-.13c.1,.06,.16,.16,.16,.29,0,.24-.21,.4-.5,.4s-.48-.17-.48-.39c0-.12,.05-.21,.12-.28h-.46v-.21Zm.81,.2c-.19,0-.3,.1-.3,.24s.11,.23,.3,.23,.32-.09,.32-.23-.12-.24-.31-.24Z"/>
          <path class="cls-1" d="M97.54,24.86c-.29,0-.49-.19-.49-.46s.2-.46,.49-.46,.49,.19,.49,.46-.2,.46-.49,.46Zm0-.72c-.19,0-.32,.1-.32,.26s.13,.25,.32,.25,.32-.1,.32-.25-.13-.26-.32-.26Z"/>
          <path class="cls-1" d="M97.78,23.74v-.25h.23v.25h-.23Z"/>
        </g>
      </g>
      <g>
        <path class="cls-1" d="M56.26,96.04h30.1v8.46h-11.58v10.36h11.58v8.46h-30.1v-8.46h10.99v-10.36h-10.99v-8.46Z"/>
        <path class="cls-1" d="M56.26,91.56v-8.46h30.1v8.46h-30.1Z"/>
        <path class="cls-1" d="M86.36,52.31v8.71c-.8,.38-1.73,.55-3.04,.59l-3.42,.13c-3.42,.13-3.93,1.73-3.93,4.1v4.4h10.4v8.46h-30.1v-14.8c0-8.2,4.23-11.2,8.92-11.2,2.92,0,5.62,1.48,7.06,4.69,1.31-3.51,3.85-4.02,7.06-4.14l4.02-.17c1.27-.04,2.33-.34,3.04-.76Zm-16.57,12.85c0-2.49-1.27-3.76-3.47-3.76s-3.47,1.27-3.47,3.76v5.07h6.93v-5.07Z"/>
        <path class="cls-1" d="M71.31,50.85c-9.59,0-15.72-6.42-15.72-15.81s6.13-15.81,15.72-15.81,15.72,6.47,15.72,15.81-6.13,15.81-15.72,15.81Zm0-22.82c-5.32,0-8.41,2.79-8.41,7.02s3.09,7.01,8.41,7.01,8.41-2.79,8.41-7.01-3.04-7.02-8.41-7.02Z"/>
      </g>
      <g>
        <polygon class="cls-1" points="49.57 49.38 47.41 49.38 47.41 48.11 47.66 48.11 47.66 49.12 48.3 49.12 48.3 48.36 48.55 48.36 48.55 49.12 49.31 49.12 49.31 48.11 49.57 48.11 49.57 49.38"/>
        <rect class="cls-1" x="49.31" y="47.09" width=".25" height=".76"/>
        <polygon class="cls-1" points="49.31 47.09 47.66 47.09 47.66 47.6 47.41 47.6 47.41 46.83 49.31 46.83 49.31 47.09"/>
        <polygon class="cls-1" points="49.31 42.87 47.66 42.87 47.66 42.61 48.68 42.61 48.68 42.49 48.55 42.49 48.55 42.36 48.42 42.36 48.42 42.23 48.3 42.23 48.3 42.11 48.17 42.11 48.17 41.98 48.04 41.98 48.04 41.85 47.91 41.85 47.91 41.72 47.66 41.72 47.66 41.47 49.31 41.47 49.31 41.72 48.3 41.72 48.3 41.85 48.42 41.85 48.42 41.98 48.55 41.98 48.55 42.11 48.68 42.11 48.68 42.23 48.8 42.23 48.8 42.36 48.93 42.36 48.93 42.49 49.06 42.49 49.06 42.61 49.31 42.61 49.31 42.87"/>
        <rect class="cls-1" x="47.41" y="41.72" width=".25" height=".89"/>
        <rect class="cls-1" x="49.31" y="41.72" width=".25" height=".89"/>
        <polygon class="cls-1" points="49.57 40.58 47.79 40.58 47.79 40.83 47.91 40.83 47.91 41.09 47.66 41.09 47.66 40.83 47.53 40.83 47.53 40.58 47.41 40.58 47.41 40.33 49.57 40.33 49.57 40.58"/>
        <polygon class="cls-1" points="48.55 36.7 47.41 36.7 47.41 35.43 47.66 35.43 47.66 36.44 48.3 36.44 48.3 35.55 48.55 35.55 48.55 36.7"/>
        <rect class="cls-1" x="49.31" y="35.55" width=".25" height="1.14"/>
        <rect class="cls-1" x="48.55" y="35.3" width=".76" height=".25"/>
        <polygon class="cls-1" points="47.91 35.04 47.41 35.04 47.41 33.52 47.91 33.52 47.91 33.77 47.66 33.77 47.66 34.79 47.91 34.79 47.91 35.04"/>
        <rect class="cls-1" x="48.42" y="34.28" width="1.14" height=".25"/>
        <rect class="cls-1" x="48.17" y="34.03" width=".25" height=".25"/>
        <rect class="cls-1" x="47.91" y="33.77" width=".25" height=".25"/>
        <rect class="cls-1" x="47.66" y="33.01" width=".76" height=".25"/>
        <rect class="cls-1" x="49.31" y="32.12" width=".25" height="1.02"/>
        <rect class="cls-1" x="47.41" y="32.12" width=".25" height=".89"/>
        <polygon class="cls-1" points="49.31 32.12 48.68 32.12 48.68 33.01 48.42 33.01 48.42 32.12 47.66 32.12 47.66 31.87 49.31 31.87 49.31 32.12"/>
        <polygon class="cls-1" points="49.31 31.61 47.66 31.61 47.66 31.36 48.68 31.36 48.68 31.23 48.55 31.23 48.55 31.1 48.42 31.1 48.42 30.98 48.3 30.98 48.3 30.85 48.17 30.85 48.17 30.72 48.04 30.72 48.04 30.59 47.91 30.59 47.91 30.47 47.66 30.47 47.66 30.21 49.31 30.21 49.31 30.47 48.3 30.47 48.3 30.59 48.42 30.59 48.42 30.72 48.55 30.72 48.55 30.85 48.68 30.85 48.68 30.98 48.8 30.98 48.8 31.1 48.93 31.1 48.93 31.23 49.06 31.23 49.06 31.36 49.31 31.36 49.31 31.61"/>
        <rect class="cls-1" x="47.41" y="30.47" width=".25" height=".89"/>
        <rect class="cls-1" x="49.31" y="30.47" width=".25" height=".89"/>
        <rect class="cls-1" x="47.66" y="26.67" width=".64" height=".25"/>
        <rect class="cls-1" x="48.55" y="26.67" width=".76" height=".25"/>
        <rect class="cls-1" x="47.41" y="25.78" width=".25" height=".89"/>
        <rect class="cls-1" x="48.3" y="25.78" width=".25" height=".89"/>
        <rect class="cls-1" x="49.31" y="25.78" width=".25" height=".89"/>
        <rect class="cls-1" x="47.66" y="25.53" width=".64" height=".25"/>
        <rect class="cls-1" x="48.55" y="25.53" width=".76" height=".25"/>
        <polygon class="cls-1" points="47.91 25.27 47.41 25.27 47.41 23.75 47.91 23.75 47.91 24 47.66 24 47.66 25.02 47.91 25.02 47.91 25.27"/>
        <rect class="cls-1" x="48.42" y="24.51" width="1.14" height=".25"/>
        <rect class="cls-1" x="48.17" y="24.25" width=".25" height=".25"/>
        <rect class="cls-1" x="47.91" y="24" width=".25" height=".25"/>
        <rect class="cls-1" x="47.66" y="23.24" width=".64" height=".25"/>
        <rect class="cls-1" x="48.55" y="23.24" width=".76" height=".25"/>
        <rect class="cls-1" x="47.41" y="22.35" width=".25" height=".89"/>
        <rect class="cls-1" x="48.3" y="22.35" width=".25" height=".89"/>
        <rect class="cls-1" x="49.31" y="22.35" width=".25" height=".89"/>
        <rect class="cls-1" x="47.66" y="22.09" width=".64" height=".25"/>
        <rect class="cls-1" x="48.55" y="22.09" width=".76" height=".25"/>
        <rect class="cls-1" x="47.41" y="20.82" width=".25" height="1.02"/>
        <polygon class="cls-1" points="49.57 21.84 49.06 21.84 49.06 21.58 49.31 21.58 49.31 20.57 49.57 20.57 49.57 21.84"/>
        <rect class="cls-1" x="48.8" y="21.33" width=".26" height=".25"/>
        <rect class="cls-1" x="48.55" y="21.08" width=".25" height=".25"/>
        <rect class="cls-1" x="48.3" y="20.82" width=".25" height=".25"/>
        <rect class="cls-1" x="47.66" y="20.57" width=".64" height=".25"/>
        <polygon class="cls-1" points="49.06 19.8 48.55 19.8 48.55 20.31 48.3 20.31 48.3 19.8 47.79 19.8 47.79 19.55 48.3 19.55 48.3 19.04 48.55 19.04 48.55 19.55 49.06 19.55 49.06 19.8"/>
        <rect class="cls-1" x="47.41" y="17.64" width=".25" height="1.14"/>
        <rect class="cls-1" x="49.31" y="17.64" width=".25" height="1.14"/>
        <rect class="cls-1" x="48.3" y="17.64" width=".25" height=".76"/>
        <rect class="cls-1" x="47.66" y="17.39" width=".64" height=".25"/>
        <rect class="cls-1" x="48.55" y="17.39" width=".76" height=".25"/>
        <rect class="cls-1" x="47.41" y="15.99" width=".25" height="1.14"/>
        <rect class="cls-1" x="49.31" y="15.99" width=".25" height="1.14"/>
        <rect class="cls-1" x="48.3" y="15.99" width=".25" height=".76"/>
        <rect class="cls-1" x="47.66" y="15.73" width=".64" height=".25"/>
        <rect class="cls-1" x="48.55" y="15.73" width=".76" height=".25"/>
      </g>
      <g>
        <g>
          <path class="cls-1" d="M.09,67.46v-1.88h.42v.13H.24v1.62h.28v.13H.09Z"/>
          <path class="cls-1" d="M1,67.11v-1.2c-.05,.03-.19,.07-.24,.08v-.14c.11-.02,.22-.09,.29-.16h.12v1.42h-.17Z"/>
          <path class="cls-1" d="M1.97,65.58v1.88h-.42v-.13h.28v-1.62h-.28v-.13h.42Z"/>
          <path class="cls-1" d="M3.04,65.58h.17v.23h-.17v-.23Zm0,.47h.17v1.07h-.17v-1.07Z"/>
          <path class="cls-1" d="M4.47,65.58v1.26c0,.1,0,.21,0,.28h-.17s0-.1,0-.16c-.06,.12-.14,.18-.32,.18-.28,0-.41-.23-.41-.55s.16-.56,.45-.56c.17,0,.25,.07,.28,.13v-.57h.17Zm-.73,1c0,.26,.11,.41,.28,.41,.23,0,.28-.17,.28-.43,0-.3-.09-.38-.27-.38s-.29,.14-.29,.4Z"/>
          <path class="cls-1" d="M5.68,67.11v-1.2c-.05,.03-.19,.07-.24,.08v-.14c.11-.02,.22-.09,.29-.16h.12v1.42h-.17Z"/>
          <path class="cls-1" d="M7.11,65.85h-.57c-.01,.11-.04,.35-.05,.44,.05-.06,.14-.11,.28-.11,.26,0,.41,.19,.41,.46s-.14,.5-.46,.5c-.25,0-.42-.13-.44-.37h.17c.03,.13,.1,.23,.27,.23,.2,0,.28-.14,.28-.34s-.09-.32-.27-.32c-.15,0-.23,.07-.27,.17l-.16-.03c.03-.17,.08-.54,.1-.77h.74l-.02,.15Z"/>
          <path class="cls-1" d="M8.33,65.85h-.57c-.01,.11-.04,.35-.05,.44,.05-.06,.14-.11,.28-.11,.26,0,.41,.19,.41,.46s-.14,.5-.46,.5c-.25,0-.42-.13-.44-.37h.17c.03,.13,.1,.23,.27,.23,.2,0,.28-.14,.28-.34s-.09-.32-.27-.32c-.15,0-.23,.07-.27,.17l-.16-.03c.03-.17,.08-.54,.1-.77h.74l-.02,.15Z"/>
          <path class="cls-1" d="M9.53,65.7v.14c-.25,.34-.46,.83-.55,1.27h-.19c.1-.47,.34-.97,.55-1.26h-.7v-.15h.88Z"/>
          <path class="cls-1" d="M10.47,67.11v-.93h-.16v-.14h.16v-.13c0-.19,.07-.35,.29-.35,.03,0,.08,0,.1,.01v.15s-.05,0-.09,0c-.09,0-.13,.06-.13,.19v.14h.2v.14h-.2v.93h-.17Z"/>
          <path class="cls-1" d="M11.12,66.4c0-.17,0-.31,0-.36h.17c0,.05,0,.12,0,.22,.05-.13,.17-.23,.35-.24v.18c-.24,0-.34,.15-.34,.38v.53h-.17v-.71Z"/>
          <path class="cls-1" d="M12.79,66.56c0,.31-.14,.57-.48,.57s-.46-.27-.46-.57,.15-.54,.48-.54c.3,0,.46,.23,.46,.54Zm-.76,0c0,.25,.1,.42,.29,.42s.29-.17,.29-.42c0-.23-.1-.39-.29-.39s-.29,.16-.29,.4Z"/>
          <path class="cls-1" d="M13.14,66.37c0-.19,0-.28,0-.33h.17s0,.11,0,.15c.05-.09,.14-.17,.3-.17,.14,0,.23,.06,.27,.18,.05-.1,.15-.18,.32-.18s.32,.08,.32,.36v.73h-.17v-.7c0-.13-.04-.24-.2-.24-.17,0-.24,.14-.24,.31v.63h-.17v-.71c0-.13-.05-.23-.19-.23-.15,0-.24,.12-.24,.33v.61h-.17v-.74Z"/>
          <path class="cls-1" d="M16.43,66.37c0,.38-.09,.76-.45,.76s-.46-.39-.46-.76,.12-.7,.46-.7,.45,.32,.45,.69Zm-.73,0c0,.34,.06,.61,.28,.61s.27-.27,.27-.61c0-.3-.06-.55-.27-.55-.22,0-.28,.26-.28,.55Z"/>
          <path class="cls-1" d="M17.67,66.37c0,.38-.09,.76-.45,.76s-.46-.39-.46-.76,.12-.7,.46-.7,.45,.32,.45,.69Zm-.73,0c0,.34,.06,.61,.28,.61s.27-.27,.27-.61c0-.3-.06-.55-.27-.55-.22,0-.28,.26-.28,.55Z"/>
          <path class="cls-1" d="M18.91,66.37c0,.38-.09,.76-.45,.76s-.46-.39-.46-.76,.12-.7,.46-.7,.45,.32,.45,.69Zm-.73,0c0,.34,.06,.61,.28,.61s.27-.27,.27-.61c0-.3-.06-.55-.27-.55-.22,0-.28,.26-.28,.55Z"/>
          <path class="cls-1" d="M20.15,66.37c0,.38-.09,.76-.45,.76s-.46-.39-.46-.76,.12-.7,.46-.7,.45,.32,.45,.69Zm-.73,0c0,.34,.06,.61,.28,.61s.27-.27,.27-.61c0-.3-.06-.55-.27-.55-.22,0-.28,.26-.28,.55Z"/>
          <path class="cls-1" d="M20.66,67.11v-1.2c-.05,.03-.19,.07-.24,.08v-.14c.11-.02,.22-.09,.29-.16h.12v1.42h-.17Z"/>
          <path class="cls-1" d="M22.15,66.37c0,.38-.09,.76-.45,.76s-.46-.39-.46-.76,.12-.7,.46-.7,.45,.32,.45,.69Zm-.73,0c0,.34,.06,.61,.28,.61s.27-.27,.27-.61c0-.3-.06-.55-.27-.55-.22,0-.28,.26-.28,.55Z"/>
          <path class="cls-1" d="M23.39,66.37c0,.38-.09,.76-.45,.76s-.46-.39-.46-.76,.12-.7,.46-.7,.45,.32,.45,.69Zm-.73,0c0,.34,.06,.61,.28,.61s.27-.27,.27-.61c0-.3-.06-.55-.27-.55-.22,0-.28,.26-.28,.55Z"/>
          <path class="cls-1" d="M23.79,67.11v-.93h-.16v-.14h.16v-.13c0-.19,.07-.35,.29-.35,.03,0,.08,0,.1,.01v.15s-.05,0-.09,0c-.09,0-.13,.06-.13,.19v.14h.2v.14h-.2v.93h-.17Z"/>
          <path class="cls-1" d="M24.36,66.97c.18-.23,.39-.53,.58-.78h-.54v-.15h.74v.15c-.18,.25-.38,.52-.57,.78h.6l-.03,.15h-.77v-.14Z"/>
          <path class="cls-1" d="M.82,69.4c0,.07,0,.18,.02,.24h-.16s-.01-.1-.02-.17c-.04,.11-.15,.18-.32,.18-.26,0-.34-.18-.34-.32,0-.16,.1-.34,.49-.34h.16v-.1c0-.1-.03-.21-.21-.21-.16,0-.21,.07-.23,.19H.04c.02-.18,.12-.32,.4-.32,.22,0,.38,.09,.38,.33v.52Zm-.17-.28h-.17c-.26,0-.31,.11-.31,.2,0,.1,.06,.19,.2,.19,.21,0,.28-.14,.28-.37v-.02Z"/>
          <path class="cls-1" d="M1.25,68.93c0-.17,0-.31,0-.36h.17c0,.05,0,.12,0,.22,.05-.13,.17-.23,.35-.24v.18c-.24,0-.34,.15-.34,.38v.53h-.17v-.71Z"/>
          <path class="cls-1" d="M2.87,69.56c0,.33-.13,.52-.46,.52s-.41-.17-.42-.32h.17c.02,.12,.12,.18,.26,.18,.23,0,.28-.15,.28-.38v-.09c-.05,.12-.15,.18-.31,.18-.25,0-.41-.21-.41-.54s.19-.55,.44-.55c.17,0,.26,.07,.28,.15,0-.05,0-.11,0-.13h.17c0,.05,0,.16,0,.31v.68Zm-.72-.46c0,.25,.1,.39,.27,.39,.2,0,.28-.13,.28-.4s-.06-.39-.27-.39c-.18,0-.28,.15-.28,.4Z"/>
          <path class="cls-1" d="M4,69.33c.02,.12,.11,.19,.24,.19,.15,0,.21-.08,.21-.17,0-.1-.07-.15-.25-.2-.26-.07-.33-.17-.33-.31s.1-.3,.36-.3,.36,.14,.37,.31h-.17c-.02-.09-.06-.17-.21-.17-.12,0-.18,.06-.18,.15,0,.08,.04,.12,.22,.17,.27,.07,.36,.17,.36,.33,0,.2-.16,.32-.39,.32s-.39-.1-.41-.33h.17Z"/>
          <path class="cls-1" d="M6.57,68.81v.14h-1v-.14h1Zm0,.45v.14h-1v-.14h1Z"/>
          <path class="cls-1" d="M7.72,69.64v-1.2c-.05,.03-.19,.07-.24,.08v-.14c.11-.02,.22-.09,.29-.16h.12v1.42h-.17Z"/>
          <path class="cls-1" d="M16.71,69.4c0,.07,0,.18,.02,.24h-.16s-.01-.1-.02-.17c-.04,.11-.15,.18-.32,.18-.26,0-.34-.18-.34-.32,0-.16,.1-.34,.49-.34h.16v-.1c0-.1-.03-.21-.21-.21-.16,0-.21,.07-.23,.19h-.17c.02-.18,.12-.32,.4-.32,.22,0,.38,.09,.38,.33v.52Zm-.17-.28h-.17c-.26,0-.31,.11-.31,.2,0,.1,.06,.19,.2,.19,.21,0,.28-.14,.28-.37v-.02Z"/>
          <path class="cls-1" d="M17.14,68.93c0-.17,0-.31,0-.36h.17c0,.05,0,.12,0,.22,.05-.13,.17-.23,.35-.24v.18c-.24,0-.34,.15-.34,.38v.53h-.17v-.71Z"/>
          <path class="cls-1" d="M18.77,69.56c0,.33-.13,.52-.46,.52s-.41-.17-.42-.32h.17c.02,.12,.12,.18,.26,.18,.23,0,.28-.15,.28-.38v-.09c-.05,.12-.15,.18-.31,.18-.25,0-.41-.21-.41-.54s.19-.55,.44-.55c.17,0,.26,.07,.28,.15,0-.05,0-.11,0-.13h.17c0,.05,0,.16,0,.31v.68Zm-.72-.46c0,.25,.1,.39,.27,.39,.2,0,.28-.13,.28-.4s-.06-.39-.27-.39c-.18,0-.28,.15-.28,.4Z"/>
          <path class="cls-1" d="M20.57,69.4c0,.07,0,.18,.02,.24h-.16s-.01-.1-.02-.17c-.04,.11-.15,.18-.32,.18-.26,0-.34-.18-.34-.32,0-.16,.1-.34,.49-.34h.16v-.1c0-.1-.03-.21-.21-.21-.16,0-.21,.07-.23,.19h-.17c.02-.18,.12-.32,.4-.32,.22,0,.38,.09,.38,.33v.52Zm-.17-.28h-.17c-.26,0-.31,.11-.31,.2,0,.1,.06,.19,.2,.19,.21,0,.28-.14,.28-.37v-.02Z"/>
          <path class="cls-1" d="M22.59,68.81v.14h-1v-.14h1Zm0,.45v.14h-1v-.14h1Z"/>
          <path class="cls-1" d="M23.75,69.64v-1.2c-.05,.03-.19,.07-.24,.08v-.14c.11-.02,.22-.09,.29-.16h.12v1.42h-.17Z"/>
          <path class="cls-1" d="M25.17,68.38h-.57c-.01,.11-.04,.35-.05,.44,.05-.06,.14-.11,.28-.11,.26,0,.41,.19,.41,.46s-.14,.5-.46,.5c-.25,0-.42-.13-.44-.37h.17c.03,.13,.1,.23,.27,.23,.2,0,.28-.14,.28-.34s-.09-.32-.27-.32c-.15,0-.23,.07-.27,.17l-.16-.03c.03-.17,.08-.54,.1-.77h.74l-.02,.15Z"/>
          <path class="cls-1" d="M.82,71.93c0,.07,0,.18,.02,.24h-.16s-.01-.1-.02-.17c-.04,.11-.15,.18-.32,.18-.26,0-.34-.18-.34-.32,0-.16,.1-.34,.49-.34h.16v-.1c0-.1-.03-.21-.21-.21-.16,0-.21,.07-.23,.19H.04c.02-.18,.12-.32,.4-.32,.22,0,.38,.09,.38,.33v.52Zm-.17-.28h-.17c-.26,0-.31,.11-.31,.2,0,.1,.06,.19,.2,.19,.21,0,.28-.14,.28-.37v-.02Z"/>
          <path class="cls-1" d="M1.25,71.46c0-.17,0-.31,0-.36h.17c0,.05,0,.12,0,.22,.05-.13,.17-.23,.35-.24v.18c-.24,0-.34,.15-.34,.38v.53h-.17v-.71Z"/>
          <path class="cls-1" d="M2.87,72.09c0,.33-.13,.52-.46,.52s-.41-.17-.42-.32h.17c.02,.12,.12,.18,.26,.18,.23,0,.28-.15,.28-.38v-.09c-.05,.12-.15,.18-.31,.18-.25,0-.41-.21-.41-.54s.19-.55,.44-.55c.17,0,.26,.07,.28,.15,0-.05,0-.11,0-.13h.17c0,.05,0,.16,0,.31v.68Zm-.72-.46c0,.25,.1,.39,.27,.39,.2,0,.28-.13,.28-.4s-.06-.39-.27-.39c-.18,0-.28,.15-.28,.4Z"/>
          <path class="cls-1" d="M4.76,70.63v1.26c0,.1,0,.21,0,.28h-.17s0-.1,0-.16c-.06,.12-.14,.18-.32,.18-.28,0-.41-.23-.41-.55s.16-.56,.45-.56c.17,0,.25,.07,.28,.13v-.57h.17Zm-.73,1c0,.26,.11,.41,.28,.41,.23,0,.28-.17,.28-.43,0-.3-.09-.38-.27-.38s-.29,.14-.29,.4Z"/>
          <path class="cls-1" d="M5.93,71.93c0,.07,0,.18,.02,.24h-.16s-.01-.1-.02-.17c-.04,.11-.15,.18-.32,.18-.26,0-.34-.18-.34-.32,0-.16,.1-.34,.49-.34h.16v-.1c0-.1-.03-.21-.21-.21-.16,0-.21,.07-.23,.19h-.17c.02-.18,.12-.32,.4-.32,.22,0,.38,.09,.38,.33v.52Zm-.17-.28h-.17c-.26,0-.31,.11-.31,.2,0,.1,.06,.19,.2,.19,.21,0,.28-.14,.28-.37v-.02Z"/>
          <path class="cls-1" d="M6.2,71.1h.17v-.31h.17v.31h.22v.14h-.22v.67c0,.09,.02,.13,.11,.13,.03,0,.06,0,.08,0v.13s-.1,.02-.14,.02c-.16,0-.23-.06-.23-.24v-.7h-.17v-.14Z"/>
          <path class="cls-1" d="M7.8,71.93c0,.07,0,.18,.02,.24h-.16s-.01-.1-.02-.17c-.04,.11-.15,.18-.32,.18-.26,0-.34-.18-.34-.32,0-.16,.1-.34,.49-.34h.16v-.1c0-.1-.03-.21-.21-.21-.16,0-.21,.07-.23,.19h-.17c.02-.18,.12-.32,.4-.32,.22,0,.38,.09,.38,.33v.52Zm-.17-.28h-.17c-.26,0-.31,.11-.31,.2,0,.1,.06,.19,.2,.19,.21,0,.28-.14,.28-.37v-.02Z"/>
          <path class="cls-1" d="M9.82,71.34v.14h-1v-.14h1Zm0,.45v.14h-1v-.14h1Z"/>
          <path class="cls-1" d="M11.71,71.43c0,.38-.09,.76-.45,.76s-.46-.39-.46-.76,.12-.7,.46-.7,.45,.32,.45,.69Zm-.73,0c0,.34,.06,.61,.28,.61s.27-.27,.27-.61c0-.3-.06-.55-.27-.55-.22,0-.28,.26-.28,.55Z"/>
          <path class="cls-1" d="M12.12,71.1c.14,.23,.21,.34,.24,.4h0c.04-.07,.13-.21,.25-.4h.19l-.34,.51,.34,.56h-.2c-.12-.21-.21-.35-.25-.42h0c-.03,.06-.12,.22-.25,.42h-.19l.34-.53-.33-.54h.2Z"/>
          <path class="cls-1" d="M13.83,70.91h-.57c-.01,.11-.04,.35-.05,.44,.05-.06,.14-.11,.28-.11,.26,0,.41,.19,.41,.46s-.14,.5-.46,.5c-.25,0-.42-.13-.44-.37h.17c.03,.13,.1,.23,.27,.23,.2,0,.28-.14,.28-.34s-.09-.32-.27-.32c-.15,0-.23,.07-.27,.17l-.16-.03c.03-.17,.08-.54,.1-.77h.74l-.02,.15Z"/>
          <path class="cls-1" d="M15.06,70.91h-.57c-.01,.11-.04,.35-.05,.44,.05-.06,.14-.11,.28-.11,.26,0,.41,.19,.41,.46s-.14,.5-.46,.5c-.25,0-.42-.13-.44-.37h.17c.03,.13,.1,.23,.27,.23,.2,0,.28-.14,.28-.34s-.09-.32-.27-.32c-.15,0-.23,.07-.27,.17l-.16-.03c.03-.17,.08-.54,.1-.77h.74l-.02,.15Z"/>
          <path class="cls-1" d="M15.69,71.24v.93h-.17v-.93h-.16v-.14h.16v-.13c0-.19,.07-.35,.29-.35,.04,0,.09,0,.11,.02v.15s-.06-.01-.09-.01c-.1,0-.13,.06-.13,.18v.14h.34v-.13c0-.19,.07-.36,.29-.36,.03,0,.09,0,.11,.02v.15s-.07-.01-.1-.01c-.09,0-.13,.07-.13,.2v.13h.2v.14h-.2v.93h-.17v-.93h-.34Z"/>
          <path class="cls-1" d="M16.79,72.17v-1.2c-.05,.03-.19,.07-.24,.08v-.14c.11-.02,.22-.09,.29-.16h.12v1.42h-.17Z"/>
          <path class="cls-1" d="M17.38,71.12c.02-.19,.14-.38,.42-.38s.4,.16,.4,.36c0,.17-.1,.26-.19,.29h0c.13,.05,.25,.15,.25,.36,0,.22-.13,.44-.47,.44-.3,0-.43-.19-.45-.38h.17c.03,.13,.11,.24,.29,.24,.21,0,.28-.14,.28-.29,0-.21-.13-.28-.31-.28h-.09v-.14h.09c.17,0,.26-.07,.26-.23,0-.14-.09-.23-.23-.23s-.23,.08-.26,.23h-.16Z"/>
          <path class="cls-1" d="M21.23,71.1c.14,.45,.24,.75,.27,.9h0c.02-.13,.21-.67,.28-.9h.17l-.37,1.07h-.19l-.35-1.07h.19Z"/>
          <path class="cls-1" d="M22.16,72.17h0c0-.16,.08-.38,.4-.64,.2-.17,.28-.23,.28-.4,0-.13-.07-.25-.24-.25s-.24,.11-.26,.28h-.17c.01-.22,.14-.43,.44-.43,.28,0,.41,.18,.41,.39s-.1,.31-.35,.51c-.17,.14-.27,.27-.31,.38h.7l-.02,.15h-.88Z"/>
          <path class="cls-1" d="M.07,74.7v-1.54H.25v1.54H.07Z"/>
          <path class="cls-1" d="M1.54,74.15c0,.31-.14,.57-.48,.57s-.46-.27-.46-.57,.15-.54,.48-.54c.3,0,.46,.23,.46,.54Zm-.76,0c0,.25,.1,.42,.29,.42s.29-.17,.29-.42c0-.23-.1-.39-.29-.39s-.29,.16-.29,.4Z"/>
          <path class="cls-1" d="M2.7,74.36c-.04,.21-.18,.36-.43,.36-.3,0-.45-.2-.45-.56,0-.31,.16-.55,.46-.55,.28,0,.4,.2,.42,.37h-.18c-.02-.12-.09-.23-.24-.23-.19,0-.28,.17-.28,.41,0,.27,.1,.42,.28,.42,.15,0,.21-.09,.25-.22h.18Z"/>
          <path class="cls-1" d="M3.67,73.16h.17v.23h-.17v-.23Zm0,.47h.17v1.07h-.17v-1.07Z"/>
          <path class="cls-1" d="M5.88,73.87v.14h-1v-.14h1Zm0,.45v.14h-1v-.14h1Z"/>
          <path class="cls-1" d="M7.03,74.7v-1.2c-.05,.03-.19,.07-.24,.08v-.14c.11-.02,.22-.09,.29-.16h.12v1.42h-.17Z"/>
          <path class="cls-1" d="M15.91,74.7v-1.54h.17v1.54h-.17Z"/>
          <path class="cls-1" d="M17.37,74.15c0,.31-.14,.57-.48,.57s-.46-.27-.46-.57,.15-.54,.48-.54c.3,0,.46,.23,.46,.54Zm-.76,0c0,.25,.1,.42,.29,.42s.29-.17,.29-.42c0-.23-.1-.39-.29-.39s-.29,.16-.29,.4Z"/>
          <path class="cls-1" d="M18.54,74.36c-.04,.21-.18,.36-.43,.36-.3,0-.45-.2-.45-.56,0-.31,.16-.55,.46-.55,.28,0,.4,.2,.42,.37h-.18c-.02-.12-.09-.23-.24-.23-.19,0-.28,.17-.28,.41,0,.27,.1,.42,.28,.42,.15,0,.21-.09,.25-.22h.18Z"/>
          <path class="cls-1" d="M19.61,74.2c0,.21,.09,.38,.28,.38,.17,0,.22-.12,.24-.18h.17c-.04,.13-.14,.32-.43,.32-.33,0-.45-.26-.45-.56,0-.26,.13-.55,.46-.55s.43,.26,.43,.51c0,0,0,.07,0,.08h-.71Zm.54-.13c0-.18-.08-.32-.26-.32-.21,0-.26,.19-.27,.32h.54Z"/>
          <path class="cls-1" d="M22.27,73.87v.14h-1v-.14h1Zm0,.45v.14h-1v-.14h1Z"/>
          <path class="cls-1" d="M23.22,74.3c0-.21,.13-.31,.24-.35-.11-.05-.18-.16-.18-.3,0-.22,.15-.37,.41-.37,.24,0,.4,.14,.4,.37,0,.16-.08,.26-.19,.3,.12,.04,.23,.16,.23,.36,0,.27-.18,.43-.46,.43s-.45-.18-.45-.42Zm.73,0c0-.19-.11-.28-.28-.28-.2,0-.28,.13-.28,.28s.1,.28,.28,.28,.28-.11,.28-.28Zm-.51-.66c0,.14,.07,.23,.24,.23,.14,0,.23-.07,.23-.23s-.1-.24-.24-.24c-.16,0-.24,.1-.24,.23Z"/>
          <path class="cls-1" d="M.82,76.99c0,.07,0,.18,.02,.24h-.16s-.01-.1-.02-.17c-.04,.11-.15,.18-.32,.18-.26,0-.34-.18-.34-.32,0-.16,.1-.34,.49-.34h.16v-.1c0-.1-.03-.21-.21-.21-.16,0-.21,.07-.23,.19H.04c.02-.18,.12-.32,.4-.32,.22,0,.38,.09,.38,.33v.52Zm-.17-.28h-.17c-.26,0-.31,.11-.31,.2,0,.1,.06,.19,.2,.19,.21,0,.28-.14,.28-.37v-.02Z"/>
          <path class="cls-1" d="M1.25,76.52c0-.17,0-.31,0-.36h.17c0,.05,0,.12,0,.22,.05-.13,.17-.23,.35-.24v.18c-.24,0-.34,.15-.34,.38v.53h-.17v-.71Z"/>
          <path class="cls-1" d="M2.87,77.15c0,.33-.13,.52-.46,.52s-.41-.17-.42-.32h.17c.02,.12,.12,.18,.26,.18,.23,0,.28-.15,.28-.38v-.09c-.05,.12-.15,.18-.31,.18-.25,0-.41-.21-.41-.54s.19-.55,.44-.55c.17,0,.26,.07,.28,.15,0-.05,0-.11,0-.13h.17c0,.05,0,.16,0,.31v.68Zm-.72-.46c0,.25,.1,.39,.27,.39,.2,0,.28-.13,.28-.4s-.06-.39-.27-.39c-.18,0-.28,.15-.28,.4Z"/>
          <path class="cls-1" d="M4.68,76.99c0,.07,0,.18,.02,.24h-.16s-.01-.1-.02-.17c-.04,.11-.15,.18-.32,.18-.26,0-.34-.18-.34-.32,0-.16,.1-.34,.49-.34h.16v-.1c0-.1-.03-.21-.21-.21-.16,0-.21,.07-.23,.19h-.17c.02-.18,.12-.32,.4-.32,.22,0,.38,.09,.38,.33v.52Zm-.17-.28h-.17c-.26,0-.31,.11-.31,.2,0,.1,.06,.19,.2,.19,.21,0,.28-.14,.28-.37v-.02Z"/>
          <path class="cls-1" d="M5.1,76.52c0-.17,0-.31,0-.36h.17c0,.05,0,.12,0,.22,.05-.13,.17-.23,.35-.24v.18c-.24,0-.34,.15-.34,.38v.53h-.17v-.71Z"/>
          <path class="cls-1" d="M6.73,77.15c0,.33-.13,.52-.46,.52s-.41-.17-.42-.32h.17c.02,.12,.12,.18,.26,.18,.23,0,.28-.15,.28-.38v-.09c-.05,.12-.15,.18-.31,.18-.25,0-.41-.21-.41-.54s.19-.55,.44-.55c.17,0,.26,.07,.28,.15,0-.05,0-.11,0-.13h.17c0,.05,0,.16,0,.31v.68Zm-.72-.46c0,.25,.1,.39,.27,.39,.2,0,.28-.13,.28-.4s-.06-.39-.27-.39c-.18,0-.28,.15-.28,.4Z"/>
          <path class="cls-1" d="M7.96,76.89c-.04,.21-.18,.36-.43,.36-.3,0-.45-.2-.45-.56,0-.31,.16-.55,.46-.55,.28,0,.4,.2,.42,.37h-.18c-.02-.12-.09-.23-.24-.23-.19,0-.28,.17-.28,.41,0,.27,.1,.42,.28,.42,.15,0,.21-.09,.25-.22h.18Z"/>
          <path class="cls-1" d="M9.89,76.4v.14h-1v-.14h1Zm0,.45v.14h-1v-.14h1Z"/>
          <path class="cls-1" d="M10.86,76.17c.02-.19,.14-.38,.42-.38s.4,.16,.4,.36c0,.17-.1,.26-.19,.29h0c.13,.05,.25,.15,.25,.36,0,.22-.13,.44-.47,.44-.3,0-.43-.19-.45-.38h.17c.03,.13,.11,.24,.29,.24,.21,0,.28-.14,.28-.29,0-.21-.13-.28-.31-.28h-.09v-.14h.09c.17,0,.26-.07,.26-.23,0-.14-.09-.23-.23-.23s-.23,.08-.26,.23h-.16Z"/>
          <path class="cls-1" d="M.82,79.52c0,.07,0,.18,.02,.24h-.16s-.01-.1-.02-.17c-.04,.11-.15,.18-.32,.18-.26,0-.34-.18-.34-.32,0-.16,.1-.34,.49-.34h.16v-.1c0-.1-.03-.21-.21-.21-.16,0-.21,.07-.23,.19H.04c.02-.18,.12-.32,.4-.32,.22,0,.38,.09,.38,.33v.52Zm-.17-.28h-.17c-.26,0-.31,.11-.31,.2,0,.1,.06,.19,.2,.19,.21,0,.28-.14,.28-.37v-.02Z"/>
          <path class="cls-1" d="M1.25,79.05c0-.17,0-.31,0-.36h.17c0,.05,0,.12,0,.22,.05-.13,.17-.23,.35-.24v.18c-.24,0-.34,.15-.34,.38v.53h-.17v-.71Z"/>
          <path class="cls-1" d="M2.87,79.68c0,.33-.13,.52-.46,.52s-.41-.17-.42-.32h.17c.02,.12,.12,.18,.26,.18,.23,0,.28-.15,.28-.38v-.09c-.05,.12-.15,.18-.31,.18-.25,0-.41-.21-.41-.54s.19-.55,.44-.55c.17,0,.26,.07,.28,.15,0-.05,0-.11,0-.13h.17c0,.05,0,.16,0,.31v.68Zm-.72-.46c0,.25,.1,.39,.27,.39,.2,0,.28-.13,.28-.4s-.06-.39-.27-.39c-.18,0-.28,.15-.28,.4Z"/>
          <path class="cls-1" d="M4.68,79.52c0,.07,0,.18,.02,.24h-.16s-.01-.1-.02-.17c-.04,.11-.15,.18-.32,.18-.26,0-.34-.18-.34-.32,0-.16,.1-.34,.49-.34h.16v-.1c0-.1-.03-.21-.21-.21-.16,0-.21,.07-.23,.19h-.17c.02-.18,.12-.32,.4-.32,.22,0,.38,.09,.38,.33v.52Zm-.17-.28h-.17c-.26,0-.31,.11-.31,.2,0,.1,.06,.19,.2,.19,.21,0,.28-.14,.28-.37v-.02Z"/>
          <path class="cls-1" d="M5.1,79.05c0-.17,0-.31,0-.36h.17c0,.05,0,.12,0,.22,.05-.13,.17-.23,.35-.24v.18c-.24,0-.34,.15-.34,.38v.53h-.17v-.71Z"/>
          <path class="cls-1" d="M6.73,79.68c0,.33-.13,.52-.46,.52s-.41-.17-.42-.32h.17c.02,.12,.12,.18,.26,.18,.23,0,.28-.15,.28-.38v-.09c-.05,.12-.15,.18-.31,.18-.25,0-.41-.21-.41-.54s.19-.55,.44-.55c.17,0,.26,.07,.28,.15,0-.05,0-.11,0-.13h.17c0,.05,0,.16,0,.31v.68Zm-.72-.46c0,.25,.1,.39,.27,.39,.2,0,.28-.13,.28-.4s-.06-.39-.27-.39c-.18,0-.28,.15-.28,.4Z"/>
          <path class="cls-1" d="M7.2,78.69c.14,.45,.24,.75,.27,.9h0c.02-.13,.21-.67,.28-.9h.17l-.37,1.07h-.19l-.35-1.07h.19Z"/>
          <path class="cls-1" d="M9.82,78.93v.14h-1v-.14h1Zm0,.45v.14h-1v-.14h1Z"/>
          <path class="cls-1" d="M11.7,79.02c0,.38-.09,.76-.45,.76s-.46-.39-.46-.76,.12-.7,.46-.7,.45,.32,.45,.69Zm-.73,0c0,.34,.06,.61,.28,.61s.27-.27,.27-.61c0-.3-.06-.55-.27-.55-.22,0-.28,.26-.28,.55Z"/>
          <path class="cls-1" d="M12.11,78.69c.14,.23,.21,.34,.24,.4h0c.04-.07,.13-.21,.25-.4h.19l-.34,.51,.34,.56h-.2c-.12-.21-.21-.35-.25-.42h0c-.03,.06-.12,.22-.25,.42h-.19l.34-.53-.33-.54h.2Z"/>
          <path class="cls-1" d="M13.79,78.35v.14c-.25,.34-.46,.83-.55,1.27h-.19c.1-.47,.34-.97,.55-1.26h-.7v-.15h.88Z"/>
        </g>
        <g>
          <path class="cls-1" d="M.27,63.06v.66H.09v-1.46H.61c.26,0,.44,.13,.44,.38,0,.21-.12,.3-.24,.34,.15,.05,.22,.17,.22,.37v.03c0,.13,0,.26,.02,.35h-.18c-.02-.06-.02-.19-.02-.35v-.03c0-.21-.07-.29-.31-.29H.27Zm0-.15h.27c.19,0,.32-.05,.32-.26,0-.16-.1-.24-.28-.24H.27v.49Z"/>
          <path class="cls-1" d="M1.54,63.22c0,.21,.09,.38,.28,.38,.17,0,.22-.12,.24-.18h.17c-.04,.13-.14,.32-.43,.32-.33,0-.45-.26-.45-.56,0-.26,.13-.55,.46-.55s.43,.26,.43,.51c0,0,0,.07,0,.08h-.71Zm.54-.13c0-.18-.08-.32-.26-.32-.21,0-.26,.19-.27,.32h.54Z"/>
          <path class="cls-1" d="M3.45,63.64c0,.33-.13,.52-.46,.52s-.41-.17-.42-.32h.17c.02,.12,.12,.18,.26,.18,.23,0,.28-.15,.28-.38v-.09c-.05,.12-.15,.18-.31,.18-.25,0-.41-.21-.41-.54s.19-.55,.44-.55c.17,0,.26,.07,.28,.15,0-.05,0-.11,0-.13h.17c0,.05,0,.16,0,.31v.68Zm-.72-.46c0,.25,.1,.39,.27,.39,.2,0,.28-.13,.28-.4s-.06-.39-.27-.39c-.18,0-.28,.15-.28,.4Z"/>
          <path class="cls-1" d="M3.87,62.18h.17v.23h-.17v-.23Zm0,.47h.17v1.07h-.17v-1.07Z"/>
          <path class="cls-1" d="M4.54,63.41c.02,.12,.11,.19,.24,.19,.15,0,.21-.08,.21-.17,0-.1-.07-.15-.25-.2-.26-.07-.33-.17-.33-.31s.1-.3,.36-.3,.36,.14,.37,.31h-.17c-.02-.09-.06-.17-.21-.17-.12,0-.18,.06-.18,.15,0,.08,.04,.12,.22,.17,.27,.07,.36,.17,.36,.33,0,.2-.16,.32-.39,.32s-.39-.1-.41-.33h.17Z"/>
          <path class="cls-1" d="M5.37,62.65h.17v-.31h.17v.31h.22v.14h-.22v.67c0,.09,.02,.13,.11,.13,.03,0,.06,0,.08,0v.13s-.1,.02-.14,.02c-.16,0-.23-.06-.23-.24v-.7h-.17v-.14Z"/>
          <path class="cls-1" d="M6.33,63.22c0,.21,.09,.38,.28,.38,.17,0,.22-.12,.24-.18h.17c-.04,.13-.14,.32-.43,.32-.33,0-.45-.26-.45-.56,0-.26,.13-.55,.46-.55s.43,.26,.43,.51c0,0,0,.07,0,.08h-.71Zm.54-.13c0-.18-.08-.32-.26-.32-.21,0-.26,.19-.27,.32h.54Z"/>
          <path class="cls-1" d="M7.39,63.01c0-.17,0-.31,0-.36h.17c0,.05,0,.12,0,.22,.05-.13,.17-.23,.35-.24v.18c-.24,0-.34,.15-.34,.38v.53h-.17v-.71Z"/>
          <path class="cls-1" d="M8.29,63.41c.02,.12,.11,.19,.24,.19,.15,0,.21-.08,.21-.17,0-.1-.07-.15-.25-.2-.26-.07-.33-.17-.33-.31s.1-.3,.36-.3,.36,.14,.37,.31h-.17c-.02-.09-.06-.17-.21-.17-.12,0-.18,.06-.18,.15,0,.08,.04,.12,.22,.17,.27,.07,.36,.17,.36,.33,0,.2-.16,.32-.39,.32s-.39-.1-.41-.33h.17Z"/>
        </g>
        <rect class="cls-1" x="9.89" y="63.04" width="41.08" height=".12"/>
      </g>
      <g>
        <g>
          <path class="cls-1" d="M121.96,98.53h.12v.83h.49l-.02,.11h-.6v-.94Z"/>
          <path class="cls-1" d="M122.76,98.64h-.3v-.11h.73v.11h-.3v.83h-.13v-.83Z"/>
          <path class="cls-1" d="M124.11,99c0,.26-.14,.49-.44,.49-.28,0-.43-.21-.43-.48s.16-.48,.44-.48c.26,0,.43,.2,.43,.48Zm-.74,0c0,.2,.1,.38,.31,.38,.22,0,.31-.18,.31-.38s-.1-.37-.3-.37-.31,.17-.31,.37Z"/>
          <path class="cls-1" d="M124.24,99.54l.38-1.02h.11l-.38,1.02h-.11Z"/>
          <path class="cls-1" d="M125.03,99.06v.41h-.12v-.94h.37c.19,0,.3,.1,.3,.25,0,.12-.07,.2-.16,.22,.08,.02,.14,.08,.14,.24v.04c0,.06,0,.15,.01,.19h-.12s-.02-.11-.02-.2v-.02c0-.13-.04-.19-.21-.19h-.19Zm0-.1h.2c.14,0,.21-.05,.21-.16,0-.1-.07-.16-.19-.16h-.22v.32Z"/>
        </g>
        <g>
          <path class="cls-1" d="M106.21,112.01c.03,.11,.1,.17,.24,.17,.15,0,.2-.07,.2-.16,0-.09-.05-.15-.23-.19-.22-.05-.3-.13-.3-.26,0-.14,.1-.25,.31-.25,.22,0,.32,.13,.33,.25h-.13c-.02-.08-.07-.15-.21-.15-.11,0-.18,.05-.18,.14s.05,.12,.22,.16c.27,.07,.32,.17,.32,.29,0,.15-.11,.27-.34,.27s-.34-.13-.36-.27h.13Z"/>
          <path class="cls-1" d="M107.76,112.28v-.75s-.13,.07-.18,.08v-.1c.07-.02,.15-.07,.22-.13h.09v.89h-.12Z"/>
          <path class="cls-1" d="M108.08,112.28v-.2h.12v.2h-.12Z"/>
          <path class="cls-1" d="M108.91,111.49h-.37c0,.07-.03,.21-.04,.25,.04-.04,.1-.07,.19-.07,.16,0,.27,.11,.27,.3s-.09,.33-.31,.33c-.16,0-.27-.09-.3-.24h.12c.02,.08,.08,.14,.18,.14,.12,0,.18-.09,.18-.22,0-.12-.05-.2-.17-.2-.11,0-.15,.05-.18,.12l-.11-.02c.03-.12,.06-.37,.07-.48h.49l-.02,.1Z"/>
          <path class="cls-1" d="M105.7,114.52l-.34-.94h.13l.17,.47c.05,.14,.1,.28,.12,.36h0c.02-.08,.07-.22,.12-.36l.17-.47h.13l-.35,.94h-.15Z"/>
          <path class="cls-1" d="M107.24,114.07c0,.22-.06,.47-.31,.47s-.31-.23-.31-.46,.07-.46,.31-.46,.31,.23,.31,.45Zm-.5,0c0,.17,.03,.36,.19,.36s.19-.18,.19-.37c0-.17-.03-.35-.18-.35s-.19,.16-.19,.36Z"/>
          <path class="cls-1" d="M107.34,114.52v-.2h.12v.2h-.12Z"/>
          <path class="cls-1" d="M107.74,114.33c.03,.07,.07,.11,.16,.11,.17,0,.19-.23,.19-.35-.04,.07-.12,.11-.21,.11-.17,0-.27-.12-.27-.28s.11-.3,.3-.3c.22,0,.3,.17,.3,.41s-.05,.51-.32,.51c-.18,0-.25-.1-.28-.21h.12Zm-.01-.42c0,.11,.06,.19,.17,.19,.12,0,.18-.06,.18-.18,0-.05-.02-.2-.18-.2-.12,0-.17,.09-.17,.19Z"/>
          <path class="cls-1" d="M108.91,113.74h-.37c0,.07-.03,.21-.04,.25,.04-.04,.1-.07,.19-.07,.16,0,.27,.11,.27,.3s-.09,.33-.31,.33c-.16,0-.27-.09-.3-.24h.12c.02,.08,.08,.14,.18,.14,.12,0,.18-.09,.18-.22,0-.12-.05-.2-.17-.2-.11,0-.15,.05-.18,.12l-.11-.02c.03-.12,.06-.37,.07-.48h.49l-.02,.1Z"/>
          <path class="cls-1" d="M106.94,116.77h-.1s0-.06-.01-.13c-.04,.07-.12,.14-.29,.14-.27,0-.42-.21-.42-.47,0-.28,.15-.49,.44-.49,.22,0,.36,.12,.38,.29h-.12c-.03-.11-.11-.18-.26-.18-.22,0-.3,.17-.3,.38,0,.19,.09,.37,.3,.37s.26-.14,.26-.3h0s-.26,0-.26,0v-.11h.39v.51Z"/>
          <path class="cls-1" d="M108.06,116.32c0,.22-.06,.47-.31,.47s-.31-.23-.31-.46,.07-.46,.31-.46,.31,.23,.31,.45Zm-.5,0c0,.17,.03,.36,.19,.36s.19-.18,.19-.37c0-.17-.03-.35-.18-.35s-.19,.16-.19,.36Z"/>
          <path class="cls-1" d="M108.16,116.77v-.2h.12v.2h-.12Z"/>
          <path class="cls-1" d="M108.99,115.88v.1c-.15,.21-.3,.53-.34,.79h-.12c.04-.25,.2-.6,.34-.79h-.46v-.1h.58Z"/>
          <path class="cls-1" d="M107.31,119.02h0c0-.14,.08-.27,.27-.41,.14-.11,.18-.14,.18-.24,0-.09-.05-.16-.15-.16s-.16,.06-.18,.16h-.12c.02-.15,.11-.26,.29-.26,.2,0,.28,.13,.28,.25,0,.13-.06,.19-.22,.31-.12,.09-.19,.17-.21,.23h.47l-.02,.1h-.59Z"/>
          <path class="cls-1" d="M108.07,119.02v-.2h.12v.2h-.12Z"/>
          <path class="cls-1" d="M108.37,119.02h0c0-.14,.08-.27,.27-.41,.14-.11,.18-.14,.18-.24,0-.09-.05-.16-.15-.16s-.16,.06-.18,.16h-.12c.02-.15,.11-.26,.29-.26,.2,0,.28,.13,.28,.25,0,.13-.06,.19-.22,.31-.12,.09-.19,.17-.21,.23h.47l-.02,.1h-.59Z"/>
        </g>
        <g>
          <path class="cls-1" d="M108.13,130.66c0,.22-.06,.47-.31,.47s-.31-.23-.31-.46,.07-.46,.31-.46,.31,.23,.31,.45Zm-.5,0c0,.17,.03,.36,.19,.36s.19-.18,.19-.37c0-.17-.03-.35-.18-.35s-.19,.16-.19,.36Z"/>
          <path class="cls-1" d="M108.68,131.11v-.23h-.42v-.11l.4-.55h.13v.56h.12v.1h-.12v.23h-.11Zm0-.56c0-.07,0-.16,0-.21-.04,.07-.21,.31-.3,.44h.3v-.22Z"/>
          <path class="cls-1" d="M109.64,130.66c0,.22-.06,.47-.31,.47s-.31-.23-.31-.46,.07-.46,.31-.46,.31,.23,.31,.45Zm-.5,0c0,.17,.03,.36,.19,.36s.19-.18,.19-.37c0-.17-.03-.35-.18-.35s-.19,.16-.19,.36Z"/>
        </g>
        <g>
          <path class="cls-1" d="M114.39,130.66c0,.22-.06,.47-.31,.47s-.31-.23-.31-.46,.07-.46,.31-.46,.31,.23,.31,.45Zm-.5,0c0,.17,.03,.36,.19,.36s.19-.18,.19-.37c0-.17-.03-.35-.18-.35s-.19,.16-.19,.36Z"/>
          <path class="cls-1" d="M115.1,130.32h-.37c0,.07-.03,.21-.04,.25,.04-.04,.1-.07,.19-.07,.16,0,.27,.11,.27,.3s-.09,.33-.31,.33c-.16,0-.27-.09-.3-.24h.12c.02,.08,.08,.14,.18,.14,.12,0,.18-.09,.18-.22,0-.12-.05-.2-.17-.2-.11,0-.15,.05-.18,.12l-.11-.02c.03-.12,.06-.37,.07-.48h.49l-.02,.1Z"/>
          <path class="cls-1" d="M115.9,130.66c0,.22-.06,.47-.31,.47s-.31-.23-.31-.46,.07-.46,.31-.46,.31,.23,.31,.45Zm-.5,0c0,.17,.03,.36,.19,.36s.19-.18,.19-.37c0-.17-.03-.35-.18-.35s-.19,.16-.19,.36Z"/>
        </g>
        <g>
          <path class="cls-1" d="M120.66,130.66c0,.22-.06,.47-.31,.47s-.31-.23-.31-.46,.07-.46,.31-.46,.31,.23,.31,.45Zm-.5,0c0,.17,.03,.36,.19,.36s.19-.18,.19-.37c0-.17-.03-.35-.18-.35s-.19,.16-.19,.36Z"/>
          <path class="cls-1" d="M121.26,130.41c-.02-.06-.06-.11-.15-.11-.15,0-.2,.14-.2,.33,.04-.06,.1-.12,.23-.12,.17,0,.27,.13,.27,.3s-.1,.32-.3,.32c-.25,0-.32-.2-.32-.45s.08-.47,.33-.47c.18,0,.25,.12,.26,.21h-.12Zm.02,.4c0-.1-.04-.21-.17-.21-.11,0-.19,.07-.19,.2,0,.07,.04,.22,.18,.22,.13,0,.18-.1,.18-.22Z"/>
          <path class="cls-1" d="M122.16,130.66c0,.22-.06,.47-.31,.47s-.31-.23-.31-.46,.07-.46,.31-.46,.31,.23,.31,.45Zm-.5,0c0,.17,.03,.36,.19,.36s.19-.18,.19-.37c0-.17-.03-.35-.18-.35s-.19,.16-.19,.36Z"/>
        </g>
        <g>
          <path class="cls-1" d="M126.97,130.66c0,.22-.06,.47-.31,.47s-.31-.23-.31-.46,.07-.46,.31-.46,.31,.23,.31,.45Zm-.5,0c0,.17,.03,.36,.19,.36s.19-.18,.19-.37c0-.17-.03-.35-.18-.35s-.19,.16-.19,.36Z"/>
          <path class="cls-1" d="M127.65,130.22v.1c-.15,.21-.3,.53-.34,.79h-.12c.04-.25,.2-.6,.34-.79h-.46v-.1h.58Z"/>
          <path class="cls-1" d="M128.37,130.66c0,.22-.06,.47-.31,.47s-.31-.23-.31-.46,.07-.46,.31-.46,.31,.23,.31,.45Zm-.5,0c0,.17,.03,.36,.19,.36s.19-.18,.19-.37c0-.17-.03-.35-.18-.35s-.19,.16-.19,.36Z"/>
        </g>
        <g>
          <path class="cls-1" d="M133.18,130.66c0,.22-.06,.47-.31,.47s-.31-.23-.31-.46,.07-.46,.31-.46,.31,.23,.31,.45Zm-.5,0c0,.17,.03,.36,.19,.36s.19-.18,.19-.37c0-.17-.03-.35-.18-.35s-.19,.16-.19,.36Z"/>
          <path class="cls-1" d="M133.31,130.86c0-.13,.08-.2,.16-.23-.08-.04-.12-.1-.12-.19,0-.14,.1-.24,.28-.24,.17,0,.27,.1,.27,.24,0,.1-.05,.16-.12,.18,.08,.03,.16,.11,.16,.23,0,.17-.13,.27-.32,.27-.17,0-.31-.1-.31-.27Zm.5,0c0-.11-.07-.17-.19-.17-.13,0-.19,.07-.19,.17s.07,.17,.19,.17c.11,0,.19-.06,.19-.17Zm-.35-.41c0,.08,.05,.14,.16,.14,.11,0,.15-.05,.15-.13,0-.08-.05-.14-.16-.14-.11,0-.16,.06-.16,.14Z"/>
          <path class="cls-1" d="M134.68,130.66c0,.22-.06,.47-.31,.47s-.31-.23-.31-.46,.07-.46,.31-.46,.31,.23,.31,.45Zm-.5,0c0,.17,.03,.36,.19,.36s.19-.18,.19-.37c0-.17-.03-.35-.18-.35s-.19,.16-.19,.36Z"/>
        </g>
        <g>
          <path class="cls-1" d="M139.45,130.66c0,.22-.06,.47-.31,.47s-.31-.23-.31-.46,.07-.46,.31-.46,.31,.23,.31,.45Zm-.5,0c0,.17,.03,.36,.19,.36s.19-.18,.19-.37c0-.17-.03-.35-.18-.35s-.19,.16-.19,.36Z"/>
          <path class="cls-1" d="M139.71,130.91c.03,.07,.07,.11,.16,.11,.17,0,.19-.23,.19-.35-.04,.07-.12,.11-.21,.11-.17,0-.27-.12-.27-.28s.11-.3,.3-.3c.22,0,.3,.17,.3,.41s-.05,.51-.32,.51c-.18,0-.25-.1-.28-.21h.12Zm-.01-.42c0,.11,.06,.19,.17,.19,.12,0,.18-.06,.18-.18,0-.05-.02-.2-.18-.2-.12,0-.17,.09-.17,.19Z"/>
          <path class="cls-1" d="M140.94,130.66c0,.22-.06,.47-.31,.47s-.31-.23-.31-.46,.07-.46,.31-.46,.31,.23,.31,.45Zm-.5,0c0,.17,.03,.36,.19,.36s.19-.18,.19-.37c0-.17-.03-.35-.18-.35s-.19,.16-.19,.36Z"/>
        </g>
        <g>
          <path class="cls-1" d="M138.94,111.34v.94h-.12v-.94h.12Z"/>
          <path class="cls-1" d="M139.2,112.28v-.94h.17c.13,.22,.43,.69,.48,.79h0c0-.12,0-.27,0-.42v-.37h.12v.94h-.15c-.12-.2-.43-.71-.49-.81h0c0,.11,0,.27,0,.44v.38h-.12Z"/>
          <path class="cls-1" d="M140.67,111.86v.41h-.12v-.94h.37c.19,0,.3,.1,.3,.25,0,.12-.07,.2-.16,.22,.08,.02,.14,.08,.14,.24v.04c0,.06,0,.15,.01,.19h-.12s-.02-.11-.02-.2v-.02c0-.13-.04-.19-.21-.19h-.19Zm0-.1h.2c.14,0,.21-.05,.21-.16,0-.1-.07-.16-.19-.16h-.22v.32Z"/>
          <path class="cls-1" d="M141.54,111.34v.94h-.12v-.94h.12Z"/>
          <path class="cls-1" d="M141.79,112.28v-.94h.17c.13,.22,.43,.69,.48,.79h0c0-.12,0-.27,0-.42v-.37h.12v.94h-.15c-.12-.2-.43-.71-.49-.81h0c0,.11,0,.27,0,.44v.38h-.12Z"/>
          <path class="cls-1" d="M143.56,112.28h-.1s0-.06-.01-.13c-.04,.07-.12,.14-.29,.14-.27,0-.42-.21-.42-.47,0-.28,.15-.49,.44-.49,.22,0,.36,.12,.38,.29h-.12c-.03-.11-.11-.18-.26-.18-.22,0-.3,.17-.3,.38,0,.19,.09,.37,.3,.37s.26-.14,.26-.3h0s-.26,0-.26,0v-.11h.39v.51Z"/>
          <path class="cls-1" d="M139.62,114.12c0-.17,0-.35,0-.45h0c-.04,.15-.19,.56-.3,.85h-.11c-.08-.24-.24-.69-.28-.85h0c0,.11,.01,.32,.01,.48v.37h-.12v-.94h.19c.11,.29,.24,.67,.27,.79h0c.02-.09,.18-.5,.29-.79h.18v.94h-.12v-.4Z"/>
          <path class="cls-1" d="M140.81,114.05c0,.26-.14,.49-.44,.49-.28,0-.43-.21-.43-.48s.16-.48,.44-.48c.26,0,.43,.2,.43,.48Zm-.74,0c0,.2,.1,.38,.31,.38,.22,0,.31-.18,.31-.38s-.1-.37-.3-.37-.31,.17-.31,.37Z"/>
          <path class="cls-1" d="M141.23,114.52l-.34-.94h.13l.17,.47c.05,.14,.1,.28,.12,.36h0c.02-.08,.07-.22,.12-.36l.17-.47h.13l-.35,.94h-.15Z"/>
          <path class="cls-1" d="M142.2,113.58h.12v.83h.49l-.02,.11h-.6v-.94Z"/>
          <path class="cls-1" d="M142.95,113.58h.12v.46c.07-.07,.31-.31,.46-.46h.16l-.4,.4,.42,.54h-.15l-.36-.46-.12,.11v.35h-.12v-.94Z"/>
          <path class="cls-1" d="M143.82,113.58h.34c.26,0,.44,.18,.44,.46s-.17,.48-.45,.48h-.33v-.94Zm.12,.83h.2c.22,0,.33-.16,.33-.37,0-.19-.1-.36-.33-.36h-.2v.73Z"/>
          <path class="cls-1" d="M139.64,116.3c0,.26-.15,.49-.44,.49-.28,0-.43-.21-.43-.48s.16-.48,.44-.48c.26,0,.43,.2,.43,.48Zm-.74,0c0,.2,.1,.38,.31,.38,.22,0,.31-.18,.31-.38s-.1-.37-.3-.37-.31,.17-.31,.37Z"/>
          <path class="cls-1" d="M139.83,115.83h.6v.11h-.48v.31h.45v.11h-.45v.42h-.12v-.94Z"/>
          <path class="cls-1" d="M140.59,115.83h.6v.11h-.48v.31h.45v.11h-.45v.42h-.12v-.94Z"/>
        </g>
        <g>
          <path class="cls-1" d="M139.5,103.89v-.3h-.56v-.14l.54-.74h.17v.74h.15l-.02,.14h-.14v.3h-.15Zm0-.74c0-.09,0-.21,0-.29-.05,.09-.28,.41-.4,.58h.4v-.3Z"/>
          <path class="cls-1" d="M140.51,103.89v-.3h-.56v-.14l.54-.74h.17v.74h.15l-.02,.14h-.14v.3h-.15Zm0-.74c0-.09,0-.21,0-.29-.05,.09-.28,.41-.4,.58h.4v-.3Z"/>
          <path class="cls-1" d="M141.13,103.63c.03,.1,.09,.15,.21,.15,.23,0,.25-.31,.25-.46-.06,.1-.16,.14-.28,.14-.22,0-.36-.16-.36-.38s.14-.4,.4-.4c.29,0,.4,.23,.4,.54s-.07,.68-.42,.68c-.24,0-.34-.14-.37-.28h.16Zm-.02-.55c0,.15,.09,.25,.23,.25,.16,0,.24-.09,.24-.24,0-.07-.03-.26-.23-.26-.16,0-.23,.11-.23,.26Z"/>
          <path class="cls-1" d="M142.76,103.29c0,.29-.08,.62-.41,.62s-.41-.31-.41-.61,.1-.61,.42-.61,.41,.3,.41,.6Zm-.66,0c0,.22,.04,.48,.25,.48s.25-.24,.25-.49c0-.23-.04-.47-.24-.47s-.25,.22-.25,.48Z"/>
        </g>
        <g>
          <path class="cls-1" d="M105.99,102.85h-.49c-.01,.1-.04,.27-.05,.34,.05-.06,.13-.1,.25-.1,.22,0,.36,.15,.36,.39s-.12,.43-.41,.43c-.21,0-.36-.12-.4-.32h.16c.03,.11,.1,.19,.24,.19,.16,0,.24-.11,.24-.29,0-.15-.06-.27-.23-.27-.14,0-.2,.06-.24,.15l-.15-.03c.04-.15,.08-.49,.1-.64h.65l-.02,.14Z"/>
          <path class="cls-1" d="M107.05,103.29c0,.29-.08,.62-.41,.62s-.41-.31-.41-.61,.1-.61,.42-.61,.41,.3,.41,.6Zm-.66,0c0,.22,.04,.48,.25,.48s.25-.24,.25-.49c0-.23-.04-.47-.24-.47s-.25,.22-.25,.48Z"/>
          <path class="cls-1" d="M107.23,103.89h0c0-.18,.11-.36,.36-.54,.19-.14,.24-.19,.24-.32,0-.12-.06-.21-.21-.21s-.21,.07-.24,.22h-.15c.02-.2,.15-.35,.39-.35,.27,0,.37,.17,.37,.34,0,.18-.08,.25-.29,.42-.16,.13-.25,.22-.28,.31h.62l-.02,.14h-.78Z"/>
          <path class="cls-1" d="M109.02,103.29c0,.29-.08,.62-.41,.62s-.41-.31-.41-.61,.1-.61,.42-.61,.41,.3,.41,.6Zm-.66,0c0,.22,.04,.48,.25,.48s.25-.24,.25-.49c0-.23-.04-.47-.24-.47s-.25,.22-.25,.48Z"/>
        </g>
        <path class="cls-1" d="M124,127.66c-6.79,0-12.31-5.52-12.31-12.31s5.52-12.31,12.31-12.31,12.31,5.52,12.31,12.31-5.52,12.31-12.31,12.31Zm0-24.43c-6.69,0-12.13,5.44-12.13,12.13s5.44,12.13,12.13,12.13,12.13-5.44,12.13-12.13-5.44-12.13-12.13-12.13Z"/>
        <path class="cls-1" d="M124,116.74c-.76,0-1.38-.62-1.38-1.38s.62-1.38,1.38-1.38,1.38,.62,1.38,1.38-.62,1.38-1.38,1.38Zm0-2.58c-.66,0-1.2,.54-1.2,1.2s.54,1.2,1.2,1.2,1.2-.54,1.2-1.2-.54-1.2-1.2-1.2Z"/>
        <polygon class="cls-1" points="111.87 104.31 111.69 104.31 111.69 101.88 120.32 101.88 120.32 102.06 111.87 102.06 111.87 104.31"/>
        <polygon class="cls-1" points="136.3 104.31 136.12 104.31 136.12 102.06 127.67 102.06 127.67 101.88 136.3 101.88 136.3 104.31"/>
        <path class="cls-1" d="M110.55,104.9h-6.85v-3.02h6.85v3.02Zm-6.67-.18h6.49v-2.66h-6.49v2.66Z"/>
        <path class="cls-1" d="M144.29,104.9h-6.85v-3.02h6.85v3.02Zm-6.67-.18h6.49v-2.66h-6.49v2.66Z"/>
        <rect class="cls-1" x="123.91" y="112.41" width=".18" height="1.66"/>
        <rect class="cls-1" x="125.29" y="115.27" width="1.66" height=".18"/>
        <rect class="cls-1" x="121.05" y="115.27" width="1.66" height=".18"/>
        <rect class="cls-1" x="102.22" y="132.16" width=".18" height="2.23"/>
        <rect class="cls-1" x="105.15" y="133.27" width=".18" height="1.11"/>
        <rect class="cls-1" x="108.48" y="132.16" width=".18" height="2.23"/>
        <rect class="cls-1" x="111.41" y="133.27" width=".18" height="1.11"/>
        <rect class="cls-1" x="114.74" y="132.16" width=".18" height="2.23"/>
        <rect class="cls-1" x="117.67" y="133.27" width=".18" height="1.11"/>
        <rect class="cls-1" x="121.01" y="132.16" width=".18" height="2.23"/>
        <rect class="cls-1" x="123.93" y="133.27" width=".18" height="1.11"/>
        <rect class="cls-1" x="127.27" y="132.16" width=".18" height="2.23"/>
        <rect class="cls-1" x="130.2" y="133.27" width=".18" height="1.11"/>
        <rect class="cls-1" x="133.53" y="132.16" width=".18" height="2.23"/>
        <rect class="cls-1" x="136.46" y="133.27" width=".18" height="1.11"/>
        <rect class="cls-1" x="139.79" y="132.16" width=".18" height="2.23"/>
        <rect class="cls-1" x="142.72" y="133.27" width=".18" height="1.11"/>
        <rect class="cls-1" x="146.05" y="132.16" width=".18" height="2.23"/>
        <polygon class="cls-1" points="108.39 124.38 107.55 123.54 106.71 124.38 106.58 124.25 107.55 123.29 108.52 124.25 108.39 124.38"/>
        <path class="cls-1" d="M140.73,125.34l-1.03-1.03,1.03-1.03,1.03,1.03-1.03,1.03Zm-.77-1.03l.77,.77,.77-.77-.77-.77-.77,.77Z"/>
      </g>
    </g>
  </g>
</svg>