<?xml version="1.0" encoding="UTF-8"?>
<!DOCTYPE svg PUBLIC "-//W3C//DTD SVG 1.1//EN" "http://www.w3.org/Graphics/SVG/1.1/DTD/svg11.dtd">
<svg xmlns="http://www.w3.org/2000/svg" version="1.1" width="40px" height="264px" style="shape-rendering:geometricPrecision; text-rendering:geometricPrecision; image-rendering:optimizeQuality; fill-rule:evenodd; clip-rule:evenodd" xmlns:xlink="http://www.w3.org/1999/xlink">
<g><path style="opacity:0.542" fill="#000000" d="M 30.5,-0.5 C 32.1667,-0.5 33.8333,-0.5 35.5,-0.5C 36.795,0.488369 38.1283,1.48837 39.5,2.5C 39.5,4.83333 39.5,7.16667 39.5,9.5C 33.6393,14.1179 29.306,12.9512 26.5,6C 27.2341,3.43931 28.5675,1.27264 30.5,-0.5 Z M 32.5,2.5 C 33.0768,1.22671 33.7435,1.22671 34.5,2.5C 34.0302,3.46295 33.3635,3.46295 32.5,2.5 Z M 30.5,9.5 C 32.2884,8.37753 34.2884,8.21086 36.5,9C 34.4505,10.3318 32.4505,10.4985 30.5,9.5 Z"/></g>
<g><path style="opacity:0.858" fill="#000000" d="M 39.5,40.5 C 39.5,42.1667 39.5,43.8333 39.5,45.5C 36.6296,46.6336 33.6296,47.3003 30.5,47.5C 29.6689,31.8118 22.0022,21.1451 7.5,15.5C 9.35812,13.4759 11.0248,11.3092 12.5,9C 23.6053,11.7529 31.4387,18.5862 36,29.5C 37.3088,33.2541 38.4754,36.9207 39.5,40.5 Z"/></g>
<g><path style="opacity:0.8" fill="#000000" d="M -0.5,42.5 C -0.5,41.1667 -0.5,39.8333 -0.5,38.5C 1.13472,34.5708 3.30138,30.9041 6,27.5C 8.56662,28.8676 11.0666,30.3676 13.5,32C 10.6433,36.0463 8.31001,40.3797 6.5,45C 4.01111,44.7627 1.67778,43.9293 -0.5,42.5 Z"/></g>
<g><path style="opacity:0.795" fill="#000000" d="M 16.5,31.5 C 19.907,31.703 22.5737,33.203 24.5,36C 22.1339,40.5646 19.6339,45.0646 17,49.5C 14.4562,47.9975 12.2895,46.1642 10.5,44C 11.8484,39.4714 13.8484,35.3048 16.5,31.5 Z"/></g>
<g><path style="opacity:0.872" fill="#000000" d="M 39.5,80.5 C 39.5,83.5 39.5,86.5 39.5,89.5C 26.8333,89.5 14.1667,89.5 1.5,89.5C 1.5,77.1667 1.5,64.8333 1.5,52.5C 13.8333,52.5 26.1667,52.5 38.5,52.5C 38.5,55.5 38.5,58.5 38.5,61.5C 37.5,61.5 36.5,61.5 35.5,61.5C 35.5,67.8333 35.5,74.1667 35.5,80.5C 36.8333,80.5 38.1667,80.5 39.5,80.5 Z M 10.5,61.5 C 16.1667,61.5 21.8333,61.5 27.5,61.5C 27.5,67.8333 27.5,74.1667 27.5,80.5C 21.8333,80.5 16.1667,80.5 10.5,80.5C 10.5,74.1667 10.5,67.8333 10.5,61.5 Z"/></g>
<g><path style="opacity:0.867" fill="#000000" d="M -0.5,127.5 C -0.5,124.5 -0.5,121.5 -0.5,118.5C 3.5,118.5 7.5,118.5 11.5,118.5C 10.087,111.504 7.42029,105.004 3.5,99C 6.41846,97.2912 9.25179,95.4579 12,93.5C 15.7287,101.186 18.562,109.186 20.5,117.5C 28.7172,120.453 31.7172,117.619 29.5,109C 29.6121,104.178 28.9454,99.5116 27.5,95C 30.8168,94.5017 34.1501,94.335 37.5,94.5C 38.3697,103.154 38.5363,111.82 38,120.5C 37.5503,122.519 36.717,124.352 35.5,126C 23.5758,127.438 11.5758,127.938 -0.5,127.5 Z"/></g>
<g><path style="opacity:0.902" fill="#000000" d="M 39.5,144.5 C 39.5,149.167 39.5,153.833 39.5,158.5C 31.7803,172.01 20.7803,175.176 6.5,168C 3.53498,165.21 1.20165,162.043 -0.5,158.5C -0.5,153.833 -0.5,149.167 -0.5,144.5C 3.98605,133.361 12.3194,128.861 24.5,131C 32.2438,132.582 37.2438,137.082 39.5,144.5 Z M 17.5,142.5 C 26.0558,142.218 29.8891,146.218 29,154.5C 22.7128,161.157 16.3795,161.157 10,154.5C 8.71826,148.053 11.2183,144.053 17.5,142.5 Z"/></g>
<g><path style="opacity:0.879" fill="#000000" d="M 39.5,172.5 C 39.5,176.5 39.5,180.5 39.5,184.5C 35.5299,185.166 31.5299,185.832 27.5,186.5C 25.8713,189.266 25.2046,192.266 25.5,195.5C 30.1667,195.5 34.8333,195.5 39.5,195.5C 39.5,199.5 39.5,203.5 39.5,207.5C 26.1667,207.5 12.8333,207.5 -0.5,207.5C -0.5,200.167 -0.5,192.833 -0.5,185.5C 0.634927,175.251 6.30159,171.418 16.5,174C 18.3031,174.637 19.6364,175.803 20.5,177.5C 22.1311,175.703 24.1311,174.536 26.5,174C 30.882,173.708 35.2153,173.208 39.5,172.5 Z M 10.5,185.5 C 12.4672,185.261 14.3005,185.594 16,186.5C 17.2886,189.351 17.7886,192.351 17.5,195.5C 14.8333,195.5 12.1667,195.5 9.5,195.5C 9.25293,192.061 9.58627,188.728 10.5,185.5 Z"/></g>
<g><path style="opacity:0.86" fill="#000000" d="M -0.5,211.5 C 12.8333,211.5 26.1667,211.5 39.5,211.5C 39.5,215.5 39.5,219.5 39.5,223.5C 26.1667,223.5 12.8333,223.5 -0.5,223.5C -0.5,219.5 -0.5,215.5 -0.5,211.5 Z"/></g>
<g><path style="opacity:0.893" fill="#000000" d="M -0.5,228.5 C 12.8333,228.5 26.1667,228.5 39.5,228.5C 39.5,232.167 39.5,235.833 39.5,239.5C 34.5,239.5 29.5,239.5 24.5,239.5C 24.5,243.5 24.5,247.5 24.5,251.5C 29.5,251.5 34.5,251.5 39.5,251.5C 39.5,255.5 39.5,259.5 39.5,263.5C 26.1667,263.5 12.8333,263.5 -0.5,263.5C -0.5,259.5 -0.5,255.5 -0.5,251.5C 4.16667,251.5 8.83333,251.5 13.5,251.5C 13.5,247.5 13.5,243.5 13.5,239.5C 8.83333,239.5 4.16667,239.5 -0.5,239.5C -0.5,235.833 -0.5,232.167 -0.5,228.5 Z"/></g>
</svg>
