<?xml version="1.0" encoding="UTF-8"?>
<svg id="Camada_1" data-name="Camada 1" xmlns="http://www.w3.org/2000/svg" viewBox="0 0 1328.65 335.79" fill="#FFFFFF" >
  <g>
    <path d="m575.77,335.79c-92.57,0-167.89-75.32-167.89-167.89S483.2,0,575.77,0s167.89,75.32,167.89,167.89-75.32,167.89-167.89,167.89Zm0-320.67c-84.24,0-152.77,68.53-152.77,152.77s68.53,152.77,152.77,152.77,152.77-68.53,152.77-152.77S660.01,15.12,575.77,15.12Z"/>
    <path d="m664.33,335.79c-92.57,0-167.89-75.32-167.89-167.89S571.76,0,664.33,0s167.89,75.32,167.89,167.89-75.32,167.89-167.89,167.89Zm0-320.67c-84.24,0-152.77,68.53-152.77,152.77s68.53,152.77,152.77,152.77,152.77-68.53,152.77-152.77S748.57,15.12,664.33,15.12Z"/>
    <path d="m752.9,335.79c-92.59,0-167.91-75.32-167.91-167.89S660.31,0,752.9,0s167.89,75.32,167.89,167.89-75.32,167.89-167.89,167.89Zm0-320.67c-84.24,0-152.79,68.53-152.79,152.77s68.55,152.77,152.79,152.77,152.77-68.53,152.77-152.77S837.14,15.12,752.9,15.12Z"/>
  </g>
  <g>
    <path d="m1160.54,335.79c-92.45-.1-167.68-75.42-167.68-167.89S1068.07.12,1160.52,0h3.15l2.32,2.26c42.21,39.63,66.42,100.01,66.42,165.63s-24.22,126-66.42,165.63l-2.32,2.26h-3.13Zm-2.95-320.63c-82.77,1.67-149.6,69.59-149.6,152.73s66.84,151.08,149.6,152.73c37.98-36.8,59.71-92.29,59.71-152.73s-21.73-115.94-59.71-152.73Z"/>
    <path d="m1156.98,335.79l-2.64-3.5c-41.5-39.61-65.26-99.4-65.26-164.39s23.8-124.84,65.34-164.47l2.56-3.43h4.06c92.41.16,167.62,75.48,167.62,167.89s-75.21,167.74-167.62,167.89h-4.06Zm7.05-320.63c-38.06,36.8-59.83,92.27-59.83,152.73s22.33,116.43,59.83,152.73c82.73-1.75,149.5-69.65,149.5-152.73s-66.78-150.98-149.5-152.73Z"/>
    <g>
      <path d="m1161.01,119.11c-20.24,0-39.61-3.43-58-10.16-25.12-9.25-47.94-24.55-66.01-44.24l11.14-10.24c16.46,17.94,37.23,31.85,60.09,40.28,33.74,12.36,71.66,12.17,105.13-.02,22.8-8.43,43.55-22.34,60.01-40.26l11.14,10.24c-18.07,19.67-40.89,34.96-65.95,44.22-18.58,6.75-37.92,10.18-57.55,10.18Z"/>
      <path d="m1273.37,281.37c-16.42-17.95-37.19-31.89-60.05-40.32-34.18-12.48-72.07-12.11-105.11.02-22.84,8.39-43.61,22.31-60.07,40.26l-11.14-10.24c18.07-19.71,40.89-35,66.01-44.22,37.21-13.66,78.81-13.41,115.52-.02,25.12,9.27,47.94,24.59,65.97,44.32l-11.14,10.2Z"/>
    </g>
    <rect x="1000.43" y="160.33" width="320.67" height="15.12"/>
    <rect x="1153.2" y="7.56" width="15.12" height="320.67"/>
  </g>
  <g>
    <path d="m167.91,335.79C75.32,335.79,0,260.46,0,167.89S75.32,0,167.91,0s167.89,75.32,167.89,167.89-75.32,167.89-167.89,167.89Zm0-320.67C83.67,15.12,15.12,83.65,15.12,167.89s68.55,152.77,152.79,152.77,152.77-68.53,152.77-152.77S252.15,15.12,167.91,15.12Z"/>
    <g>
      <path d="m167.91,253.83l-110.09-85.93,110.09-85.92,110.07,85.92-110.07,85.93Zm-85.52-85.93l85.52,66.76,85.5-66.76-85.5-66.74-85.52,66.74Z"/>
      <path d="m167.91,202.21c-18.92,0-34.31-15.4-34.31-34.31s15.4-34.3,34.31-34.3,34.3,15.38,34.3,34.3-15.38,34.31-34.3,34.31Zm0-53.49c-10.59,0-19.2,8.6-19.2,19.18s8.6,19.2,19.2,19.2,19.18-8.6,19.18-19.2-8.6-19.18-19.18-19.18Z"/>
    </g>
  </g>
</svg>